<svg xmlns="http://www.w3.org/2000/svg" xmlns:xlink="http://www.w3.org/1999/xlink" viewBox="0 0 36.35 27.81"><defs><style>.a{fill:none;}.b{fill:#262626;}.c{isolation:isolate;}.d{clip-path:url(#a);}.e{fill:#a0a0a0;}.f{fill:#a1a1a1;}.g{fill:#8a8a8a;}.h{clip-path:url(#b);}.i{clip-path:url(#c);}.j{fill:#e2e2e2;}.k{clip-path:url(#d);}.l{fill:#e3e3e3;}.m{clip-path:url(#e);}.n{fill:#f0f0f0;}.o{fill:#d4d4d4;}.p{clip-path:url(#f);}.q{fill:#942415;}.r{clip-path:url(#g);}.s{fill:#b92d1a;}.t{fill:#de361f;}.u{fill:#7e1f12;}.v{clip-path:url(#h);}.w{clip-path:url(#i);}.x{fill:#353535;}.y{fill:#424242;}.z{fill:#2574a8;}.aa{fill:#3497da;}.ab{fill:#1a5175;}.ac{fill:#a8a8a8;}.ad{fill:#ebebeb;}.ae{fill:#dcdcdc;}.af{fill:#22a6ef;}.ag{fill:#e88102;}.ah{fill:#e89125;}.ai{fill:#8a4c01;}.aj{fill:#fff;}.ak{fill:#c76f02;}.al{fill:#fbab20;}.am{clip-path:url(#j);}.an{clip-path:url(#k);}.ao{clip-path:url(#l);}.ap{clip-path:url(#m);}.aq{clip-path:url(#n);}.ar{clip-path:url(#o);}</style><clipPath id="a" transform="translate(-1.65 -1.16)"><path class="a" d="M6.58,3.64l0,4.44c4.4-2.54,11.54-2.54,15.92,0l0-4.44C18.13,1.1,11,1.1,6.58,3.64Z"/></clipPath><clipPath id="b" transform="translate(-1.65 -1.16)"><path class="a" d="M2.65,8.64c0,2.08,0,2.35,0,4.44,0-1.68,1.1-3.36,3.31-4.64V4C3.75,5.27,2.65,7,2.65,8.64Z"/></clipPath><clipPath id="c" transform="translate(-1.65 -1.16)"><path class="a" d="M1.65,8.61l0,4.44c0,1.89,1.26,3.67,3.56,5l0-4.44C2.91,12.28,1.64,10.5,1.65,8.61Z"/></clipPath><clipPath id="d" transform="translate(-1.65 -1.16)"><path class="a" d="M29.91,5.65l1.32-.76a2.79,2.79,0,0,1,2.82.28l-1.32.76A2.79,2.79,0,0,0,29.91,5.65Z"/></clipPath><clipPath id="e" transform="translate(-1.65 -1.16)"><path class="a" d="M36.84,14.55l-1.31.77a2.79,2.79,0,0,0,1.15-2.55,8.69,8.69,0,0,0-4-6.84l1.32-.76A8.68,8.68,0,0,1,38,12,2.76,2.76,0,0,1,36.84,14.55Z"/></clipPath><clipPath id="f" transform="translate(-1.65 -1.16)"><path class="a" d="M26.07,5.6,28,4.51c1-.6,2.46-.52,4,.4L30.12,6C28.54,5.09,27.11,5,26.07,5.6Z"/></clipPath><clipPath id="g" transform="translate(-1.65 -1.16)"><path class="a" d="M36,18.36l-1.89,1.09a4,4,0,0,0,1.66-3.64A12.49,12.49,0,0,0,30.12,6L32,4.91a12.46,12.46,0,0,1,5.66,9.8A4,4,0,0,1,36,18.36Z"/></clipPath><clipPath id="h" transform="translate(-1.65 -1.16)"><path class="b" d="M24.25,6.87l1.81-1a3.83,3.83,0,0,1,3.88.38l-1.81,1A3.83,3.83,0,0,0,24.25,6.87Z"/></clipPath><clipPath id="i" transform="translate(-1.65 -1.16)"><path class="b" d="M33.79,19.13,32,20.18a3.83,3.83,0,0,0,1.6-3.5,12,12,0,0,0-5.45-9.43l1.81-1a12,12,0,0,1,5.45,9.42A3.84,3.84,0,0,1,33.79,19.13Z"/></clipPath><clipPath id="j" transform="translate(-1.65 -1.16)"><path class="b" d="M9.61,14.11l1.81-1a3.84,3.84,0,0,1,3.89.38L13.5,14.49A3.89,3.89,0,0,0,9.61,14.11Z"/></clipPath><clipPath id="k" transform="translate(-1.65 -1.16)"><path class="b" d="M19.16,26.37l-1.81,1.05a3.81,3.81,0,0,0,1.59-3.5,12,12,0,0,0-5.44-9.43l1.81-1.05a12,12,0,0,1,5.44,9.43A3.81,3.81,0,0,1,19.16,26.37Z"/></clipPath><clipPath id="l" transform="translate(-1.65 -1.16)"><path class="a" d="M8.06,14.74l1.88-1.1c1-.6,2.46-.51,4,.4L12.1,15.13C10.52,14.22,9.09,14.14,8.06,14.74Z"/></clipPath><clipPath id="m" transform="translate(-1.65 -1.16)"><path class="a" d="M18,27.49l-1.89,1.1a4,4,0,0,0,1.66-3.65,12.5,12.5,0,0,0-5.66-9.81L14,14a12.48,12.48,0,0,1,5.67,9.81A4,4,0,0,1,18,27.49Z"/></clipPath><clipPath id="n" transform="translate(-1.65 -1.16)"><path class="a" d="M8,17.21l1.32-.76a2.8,2.8,0,0,1,2.82.27l-1.32.77A2.79,2.79,0,0,0,8,17.21Z"/></clipPath><clipPath id="o" transform="translate(-1.65 -1.16)"><path class="a" d="M14.93,26.11l-1.31.77a2.79,2.79,0,0,0,1.15-2.55,8.69,8.69,0,0,0-3.95-6.84l1.32-.77a8.71,8.71,0,0,1,3.95,6.85A2.74,2.74,0,0,1,14.93,26.11Z"/></clipPath></defs><title>audio</title><g class="c"><g class="c"><g class="d"><g class="c"><path class="e" d="M6.58,3.64l0,4.44c4.4-2.54,11.54-2.54,15.92,0l0-4.44C18.13,1.1,11,1.1,6.58,3.64Z" transform="translate(-1.65 -1.16)"/></g></g></g><polygon class="e" points="4.31 2.84 4.33 7.28 4.95 6.93 4.93 2.48 4.31 2.84"/><polygon class="f" points="20.85 2.48 20.86 6.93 27.13 10.57 27.11 6.12 20.85 2.48"/><polygon class="g" points="27.11 6.12 27.13 10.57 27.83 10.16 27.81 5.72 27.11 6.12"/><g class="c"><g class="h"><g class="c"><path class="e" d="M2.65,8.64l0,4.44c0-1.68,1.1-3.36,3.31-4.64V4C3.75,5.27,2.65,7,2.65,8.64Z" transform="translate(-1.65 -1.16)"/></g></g></g><g class="c"><g class="i"><g class="c"><path class="e" d="M1.65,8.61l0,4.44c0,1.89,1.26,3.67,3.56,5l0-4.44c-2.3-1.34-3.57-3.12-3.56-5Z" transform="translate(-1.65 -1.16)"/></g></g></g><polygon class="f" points="3.56 12.46 3.58 16.91 9.84 20.55 9.82 16.1 3.56 12.46"/><path class="j" d="M5.27,3.59C3,4.93,1.67,6.71,1.65,8.61s1.26,3.67,3.56,5l6.26,3.64.71-.41L5.92,13.22C1.54,10.67,1.57,6.54,6,4l.61-.36C11,1.1,18.13,1.1,22.5,3.64l6.26,3.64.7-.41L23.21,3.23a17.51,17.51,0,0,0-8.65-2.07A17.66,17.66,0,0,0,5.88,3.23Z" transform="translate(-1.65 -1.16)"/><polygon class="g" points="9.82 16.1 9.84 20.55 10.54 20.14 10.52 15.7 9.82 16.1"/></g><g class="c"><g class="c"><g class="k"><path class="l" d="M29.91,5.65l1.32-.76a2.79,2.79,0,0,1,2.82.28l-1.32.76a2.79,2.79,0,0,0-2.82-.28Z" transform="translate(-1.65 -1.16)"/></g></g><g class="c"><g class="m"><path class="l" d="M32.73,5.93l1.32-.76c.15.08.29.18.44.28l-1.31.76-.45-.28Z" transform="translate(-1.65 -1.16)"/><path class="l" d="M33.18,6.21l1.31-.76a7.24,7.24,0,0,1,1.33,1.22l-1.31.77a8.06,8.06,0,0,0-1.33-1.23Z" transform="translate(-1.65 -1.16)"/><path class="n" d="M34.51,7.44l1.31-.77A8.65,8.65,0,0,1,38,12c0,.11,0,.21,0,.31l-1.32.76c0-.1,0-.2,0-.31a8.61,8.61,0,0,0-2.17-5.33Z" transform="translate(-1.65 -1.16)"/><path class="l" d="M36.67,13.08,38,12.32a3.77,3.77,0,0,1-.34,1.36l-1.32.76a3.4,3.4,0,0,0,.34-1.36Z" transform="translate(-1.65 -1.16)"/><path class="l" d="M36.33,14.44l1.32-.76a2.14,2.14,0,0,1-.81.87l-1.31.77a2.14,2.14,0,0,0,.8-.88Z" transform="translate(-1.65 -1.16)"/></g></g><path class="o" d="M32.73,5.93a8.69,8.69,0,0,1,4,6.84c0,2.52-1.78,3.53-4,2.27a8.7,8.7,0,0,1-3.95-6.85C28.76,5.68,30.54,4.67,32.73,5.93Z" transform="translate(-1.65 -1.16)"/></g><g class="c"><g class="c"><g class="p"><g class="c"><path class="q" d="M26.07,5.6,28,4.51c1-.6,2.46-.52,4,.4L30.12,6c-1.58-.91-3-1-4.05-.4Z" transform="translate(-1.65 -1.16)"/></g></g></g><g class="c"><g class="r"><g class="c"><path class="q" d="M30.12,6,32,4.91a7.47,7.47,0,0,1,.64.4l-1.89,1.1A7.49,7.49,0,0,0,30.12,6Z" transform="translate(-1.65 -1.16)"/><path class="s" d="M30.75,6.41l1.89-1.1a10.84,10.84,0,0,1,1.91,1.76L32.66,8.16a10.44,10.44,0,0,0-1.91-1.75Z" transform="translate(-1.65 -1.16)"/><path class="t" d="M32.66,8.16l1.89-1.09a12.42,12.42,0,0,1,3.11,7.64c0,.15,0,.3,0,.44l-1.89,1.1a3.17,3.17,0,0,0,0-.44,12.41,12.41,0,0,0-3.12-7.65Z" transform="translate(-1.65 -1.16)"/><path class="s" d="M35.76,16.25l1.89-1.1a5,5,0,0,1-.49,2l-1.89,1.1a4.74,4.74,0,0,0,.49-1.95Z" transform="translate(-1.65 -1.16)"/><path class="q" d="M35.27,18.2l1.89-1.1A3.07,3.07,0,0,1,36,18.36l-1.89,1.09a3,3,0,0,0,1.15-1.25Z" transform="translate(-1.65 -1.16)"/></g></g></g><path class="u" d="M30.12,6a12.49,12.49,0,0,1,5.66,9.81c0,3.6-2.56,5.06-5.7,3.24a12.46,12.46,0,0,1-5.66-9.8C24.43,5.64,27,4.19,30.12,6Z" transform="translate(-1.65 -1.16)"/></g><g class="c"><g class="c"><path class="b" d="M24.25,6.87l1.81-1a3.83,3.83,0,0,1,3.88.38l-1.81,1A3.83,3.83,0,0,0,24.25,6.87Z" transform="translate(-1.65 -1.16)"/><g class="v"><g class="c"><path class="b" d="M24.25,6.87l1.81-1a3.83,3.83,0,0,1,3.88.38l-1.81,1a3.83,3.83,0,0,0-3.88-.38Z" transform="translate(-1.65 -1.16)"/></g></g></g><g class="c"><path class="b" d="M33.79,19.13,32,20.18a3.83,3.83,0,0,0,1.6-3.5,12,12,0,0,0-5.45-9.43l1.81-1a12,12,0,0,1,5.45,9.42A3.84,3.84,0,0,1,33.79,19.13Z" transform="translate(-1.65 -1.16)"/><g class="w"><g class="c"><path class="b" d="M28.13,7.25l1.81-1a6.33,6.33,0,0,1,.61.39l-1.81,1c-.2-.14-.4-.27-.61-.39Z" transform="translate(-1.65 -1.16)"/><path class="x" d="M28.74,7.64l1.81-1a10.06,10.06,0,0,1,1.84,1.69L30.58,9.33a10.06,10.06,0,0,0-1.84-1.69Z" transform="translate(-1.65 -1.16)"/><path class="y" d="M30.58,9.33l1.81-1.05a12,12,0,0,1,3,7.34c0,.15,0,.29,0,.43L33.56,17.1c0-.13,0-.28,0-.42a12,12,0,0,0-3-7.35Z" transform="translate(-1.65 -1.16)"/><path class="x" d="M33.56,17.1l1.81-1.05a4.67,4.67,0,0,1-.47,1.87L33.09,19a4.9,4.9,0,0,0,.47-1.88Z" transform="translate(-1.65 -1.16)"/><path class="b" d="M33.09,19l1.81-1.06a2.84,2.84,0,0,1-1.11,1.21L32,20.18A2.88,2.88,0,0,0,33.09,19Z" transform="translate(-1.65 -1.16)"/></g></g></g><path class="b" d="M28.13,7.25a12,12,0,0,1,5.45,9.43c0,3.46-2.47,4.86-5.48,3.12a12,12,0,0,1-5.45-9.43C22.66,6.91,25.12,5.51,28.13,7.25Z" transform="translate(-1.65 -1.16)"/></g><g class="c"><polygon class="z" points="6.75 15.64 6.76 16.13 23.28 25.7 23.28 25.21 6.75 15.64"/><polygon class="aa" points="23.28 25.21 23.28 25.7 34.52 19.21 34.52 18.72 23.28 25.21"/><polygon class="ab" points="6.75 15.64 23.28 25.21 34.52 18.72 18 9.15 6.75 15.64"/></g><polygon class="ab" points="33.25 16.79 34.37 16.26 34.37 18.57 33.25 19.38 33.25 16.79"/><g class="c"><polygon class="ac" points="7.76 13.88 7.76 15.81 23.28 24.8 23.28 22.87 7.76 13.88"/><polygon class="ad" points="33.63 16.9 33.63 18.83 23.28 24.8 23.28 22.87 33.63 16.9"/><polygon class="ae" points="18.2 7.86 33.07 16.47 33.07 17.21 23.28 22.87 7.76 13.88 18.2 7.86"/></g><g class="c"><polygon class="z" points="6.75 12.82 6.76 13.3 23.28 22.87 23.28 22.38 6.75 12.82"/><polygon class="aa" points="23.28 22.38 23.28 22.87 34.52 16.38 34.52 15.89 23.28 22.38"/><polygon class="af" points="6.75 12.82 23.28 22.38 34.52 15.89 18 6.33 6.75 12.82"/><polygon class="ab" points="10 13.18 22.66 20.5 31.27 15.53 18.62 8.2 10 13.18"/><polygon class="af" points="11.74 13.37 22.33 19.5 29.53 15.34 18.95 9.21 11.74 13.37"/><polygon class="ab" points="19.14 10.24 13.99 13.21 18.95 16.09 24.11 13.11 19.14 10.24"/><polygon class="ab" points="19.9 17.29 22 18.5 27.81 15.15 25.71 13.93 19.9 17.29"/></g><polygon class="aa" points="34 19.28 34.52 19.01 34.52 16.09 34 16.41 34 19.28"/><g class="c"><polygon class="ag" points="8.54 12.67 8.54 13.11 23.29 21.65 23.29 21.21 8.54 12.67"/><polygon class="ah" points="23.29 21.19 23.29 21.62 33.33 15.82 33.33 15.39 23.29 21.19"/><polygon class="ai" points="8.54 12.67 23.29 21.21 33.33 15.41 18.57 6.88 8.54 12.67"/></g><g class="c"><polygon class="ad" points="9.43 11.1 9.44 12.82 23.29 20.84 23.29 19.13 9.43 11.1"/><polygon class="aj" points="32.53 13.68 32.53 15.51 23.29 20.84 23.29 19.01 32.53 13.68"/><polygon class="ae" points="18.71 5.68 32 13.38 32 14.04 23.25 19.09 9.39 11.07 18.71 5.68"/></g><g class="c"><polygon class="ag" points="8.54 10.15 8.54 13.08 23.29 21.62 23.29 18.69 8.54 10.15"/><polygon class="ak" points="22.14 18.02 20.79 17.24 20.79 20.17 22.14 20.95 22.14 18.02"/><polygon class="ah" points="23.29 18.66 23.29 19.1 33.33 13.3 33.33 12.87 23.29 18.66"/><polygon class="al" points="8.54 10.15 23.29 18.69 33.33 12.89 18.57 4.35 8.54 10.15"/><polygon class="ag" points="11.73 10.5 22.68 16.84 30.13 12.54 19.18 6.2 11.73 10.5"/><polygon class="al" points="13.65 10.71 22.31 15.73 28.21 12.33 19.55 7.31 13.65 10.71"/><polygon class="ag" points="22.27 9.7 17.91 12.21 19.31 13.03 23.67 10.51 22.27 9.7"/><polygon class="ag" points="15.15 10.53 17.2 11.72 21.56 9.2 19.51 8.01 15.15 10.53"/></g><polygon class="ah" points="23.29 21.27 23.75 21.03 23.75 18.42 23.29 18.7 23.29 21.27"/><g class="c"><g class="c"><path class="b" d="M9.61,14.11l1.81-1a3.84,3.84,0,0,1,3.89.38L13.5,14.49A3.89,3.89,0,0,0,9.61,14.11Z" transform="translate(-1.65 -1.16)"/><g class="am"><g class="c"><path class="b" d="M9.61,14.11l1.81-1a3.84,3.84,0,0,1,3.89.38L13.5,14.49a3.89,3.89,0,0,0-3.89-.38Z" transform="translate(-1.65 -1.16)"/></g></g></g><g class="c"><path class="b" d="M19.16,26.37l-1.81,1.05a3.81,3.81,0,0,0,1.59-3.5,12,12,0,0,0-5.44-9.43l1.81-1.05a12,12,0,0,1,5.44,9.43A3.81,3.81,0,0,1,19.16,26.37Z" transform="translate(-1.65 -1.16)"/><g class="an"><g class="c"><path class="b" d="M13.5,14.49l1.81-1.05c.2.12.41.25.61.39l-1.81,1.05c-.2-.14-.41-.27-.61-.39Z" transform="translate(-1.65 -1.16)"/><path class="x" d="M14.11,14.88l1.81-1.05a10.34,10.34,0,0,1,1.83,1.69L16,16.57a11.18,11.18,0,0,0-1.84-1.69Z" transform="translate(-1.65 -1.16)"/><path class="y" d="M16,16.57l1.8-1.05a11.91,11.91,0,0,1,3,7.35c0,.14,0,.29,0,.42l-1.81,1.06c0-.14,0-.28,0-.43a12,12,0,0,0-3-7.35Z" transform="translate(-1.65 -1.16)"/><path class="x" d="M18.93,24.35l1.81-1.06a4.68,4.68,0,0,1-.48,1.88l-1.81,1a4.84,4.84,0,0,0,.48-1.87Z" transform="translate(-1.65 -1.16)"/><path class="b" d="M18.45,26.22l1.81-1a2.85,2.85,0,0,1-1.1,1.2l-1.81,1.05a2.8,2.8,0,0,0,1.1-1.2Z" transform="translate(-1.65 -1.16)"/></g></g></g><path class="b" d="M13.5,14.49a12,12,0,0,1,5.44,9.43c0,3.47-2.46,4.86-5.48,3.12A12,12,0,0,1,8,17.61C8,14.15,10.48,12.75,13.5,14.49Z" transform="translate(-1.65 -1.16)"/></g><g class="c"><g class="c"><g class="ao"><g class="c"><path class="q" d="M8.06,14.74l1.88-1.1c1-.6,2.46-.51,4,.4L12.1,15.13c-1.58-.91-3-1-4-.39Z" transform="translate(-1.65 -1.16)"/></g></g></g><g class="c"><g class="ap"><g class="c"><path class="q" d="M12.1,15.13,14,14a6.29,6.29,0,0,1,.64.41l-1.89,1.09c-.2-.15-.42-.28-.63-.41Z" transform="translate(-1.65 -1.16)"/><path class="s" d="M12.73,15.54l1.89-1.09a11.17,11.17,0,0,1,1.91,1.75l-1.88,1.1a10.55,10.55,0,0,0-1.92-1.76Z" transform="translate(-1.65 -1.16)"/><path class="t" d="M14.65,17.3l1.88-1.1a12.52,12.52,0,0,1,3.12,7.65c0,.15,0,.3,0,.44l-1.88,1.09c0-.14,0-.29,0-.44a12.42,12.42,0,0,0-3.11-7.64Z" transform="translate(-1.65 -1.16)"/><path class="s" d="M17.75,25.38l1.88-1.09a5,5,0,0,1-.49,1.95l-1.88,1.09a5,5,0,0,0,.49-1.95Z" transform="translate(-1.65 -1.16)"/><path class="q" d="M17.26,27.33l1.88-1.09A3,3,0,0,1,18,27.49l-1.89,1.1a3,3,0,0,0,1.16-1.26Z" transform="translate(-1.65 -1.16)"/></g></g></g><path class="u" d="M12.1,15.13a12.5,12.5,0,0,1,5.66,9.81c0,3.61-2.56,5.06-5.7,3.25A12.47,12.47,0,0,1,6.4,18.38C6.41,14.78,9,13.32,12.1,15.13Z" transform="translate(-1.65 -1.16)"/></g><g class="c"><g class="c"><g class="aq"><path class="l" d="M8,17.21l1.32-.76a2.8,2.8,0,0,1,2.82.27l-1.32.77A2.79,2.79,0,0,0,8,17.21Z" transform="translate(-1.65 -1.16)"/></g></g><g class="c"><g class="ar"><path class="l" d="M10.82,17.49l1.32-.77.44.29-1.31.76-.45-.28Z" transform="translate(-1.65 -1.16)"/><path class="l" d="M11.27,17.77,12.58,17a6.93,6.93,0,0,1,1.33,1.22L12.6,19a8.06,8.06,0,0,0-1.33-1.23Z" transform="translate(-1.65 -1.16)"/><path class="n" d="M12.6,19l1.31-.77a8.71,8.71,0,0,1,2.18,5.34c0,.11,0,.21,0,.31l-1.31.76v-.31A8.61,8.61,0,0,0,12.6,19Z" transform="translate(-1.65 -1.16)"/><path class="l" d="M14.77,24.64l1.31-.76a3.57,3.57,0,0,1-.34,1.36L14.42,26a3.57,3.57,0,0,0,.35-1.36Z" transform="translate(-1.65 -1.16)"/><path class="l" d="M14.42,26l1.32-.76a2.14,2.14,0,0,1-.81.87l-1.31.77a2.14,2.14,0,0,0,.8-.88Z" transform="translate(-1.65 -1.16)"/></g></g><path class="o" d="M10.82,17.49a8.69,8.69,0,0,1,3.95,6.84c0,2.52-1.78,3.53-4,2.27a8.75,8.75,0,0,1-4-6.85C6.85,17.24,8.63,16.22,10.82,17.49Z" transform="translate(-1.65 -1.16)"/></g></svg>