<svg xmlns="http://www.w3.org/2000/svg" viewBox="0 0 233.37 359.21"><defs><style>.a{isolation:isolate;}.b{fill:#0c93bd;}.c{fill:#aa392c;}.d{fill:#f05f51;}.e{fill:#0fb4e7;}.f{fill:#ff5542;}.g{fill:#f1f2f2;}.h{fill:#4a2400;}.i{fill:#83cff2;}.j{fill:#232324;}.k{fill:#31393d;}.l{fill:#fdfdfd;}.m{fill:#9cb5cc;}.n{fill:#d7e7f7;}.o{fill:#e9eff2;}.p{fill:#f8f9fc;}.q{fill:#022540;}.r{fill:#919191;}.s{fill:#717173;}.t{fill:#727273;}.u{fill:#a8bdcc;}.v{fill:#d1dce6;}.w{fill:#e55d4c;}.x{fill:#ffb923;}</style></defs><title>computer</title><g class="a"><path class="b" d="M215.58,153.53,213,152c.48-.89,1-1.8,1.43-2.7.64-1.22,1.2-2.46,1.73-3.69l2.62,1.51c-.54,1.25-1.1,2.48-1.74,3.71C216.54,151.73,216.06,152.64,215.58,153.53Z" transform="translate(-7.87 -20)"/><path class="c" d="M229.68,119.41l2.61,1.53a.18.18,0,0,1,.09.06c.48.42.63,2.4-.27,6.37C230,136.73,225.7,143.11,219,147l-.3.14-2.62-1.51.3-.15c6.67-3.88,11-10.26,13.07-19.61.9-4,.76-5.95.28-6.38A.47.47,0,0,0,229.68,119.41Z" transform="translate(-7.87 -20)"/><path class="d" d="M232.65,114.25l2.61,1.52c-1.66-1-4.24,0-6.64,1.4L226,115.65C228.4,114.26,231,113.29,232.65,114.25Z" transform="translate(-7.87 -20)"/><path class="e" d="M222.11,125.56,219.49,124c.33-1.85.44-3.6.7-5.44l2.61,1.53C222.54,122,222.43,123.7,222.11,125.56Z" transform="translate(-7.87 -20)"/><path class="d" d="M222.8,120.13l-2.61-1.53c.68-.49,5-2.51,5.81-2.95l2.62,1.52C227.84,117.62,223.49,119.64,222.8,120.13Z" transform="translate(-7.87 -20)"/><path class="f" d="M228.62,117.17c4.85-2.81,10.51-3.9,7.51,9.29C233,140.12,226,147.8,219.05,151.83a27.64,27.64,0,0,1-3.47,1.7c.48-.89,1-1.8,1.42-2.7.64-1.23,1.2-2.46,1.74-3.71l.3-.14c6.66-3.87,11-10.25,13.07-19.61.9-4,.75-6,.27-6.37s-1.85-.1-3.75,1c-1.11.65-5.71,2.91-6.52,3.55.32-1.86.43-3.6.69-5.43C223.49,119.64,227.84,117.62,228.62,117.17Z" transform="translate(-7.87 -20)"/></g><g class="a"><g class="a"><g class="a"><path class="f" d="M223.92,113.92,223.83,155c0,3.22-2.12,6.45-6.34,8.91a29.53,29.53,0,0,1-12.4,3.6l.09-41.11a29.59,29.59,0,0,0,12.4-3.6c4.22-2.46,6.33-5.69,6.34-8.92Z" transform="translate(-7.87 -20)"/><path class="c" d="M205.18,126.44l-.09,41.11c-6.54.52-13.41-.68-18.45-3.6-4.31-2.49-6.46-5.77-6.44-9l.09-41.11c0,3.27,2.14,6.55,6.45,9,5,2.93,11.91,4.13,18.44,3.6Z" transform="translate(-7.87 -20)"/></g></g><path class="d" d="M217.49,104.88c8.54,5,8.59,13,.09,18s-22.3,5-30.84,0-8.6-13-.11-18S208.94,99.93,217.49,104.88Z" transform="translate(-7.87 -20)"/><path class="g" d="M215,106.35c7.15,4.15,7.19,10.87.08,15s-18.66,4.14-25.81,0-7.19-10.88-.08-15S207.82,102.2,215,106.35Z" transform="translate(-7.87 -20)"/><path class="h" d="M189.24,121.38c7.15,4.14,18.72,4.14,25.81,0,2.72-1.59,4.38-3.55,5-5.59-.63-2.08-2.32-4.07-5.09-5.67-7.15-4.15-18.71-4.15-25.81,0a10.36,10.36,0,0,0-5,5.58C184.79,117.78,186.48,119.77,189.24,121.38Z" transform="translate(-7.87 -20)"/></g><path class="i" d="M150,59.92c2.17-1.26,4-.23,4,2.26l.23,81.3a8.72,8.72,0,0,1-4,6.81l-128.13,74c-2.19,1.25-4,.24-4-2.24l-.24-81.32a8.76,8.76,0,0,1,3.95-6.83Z" transform="translate(-7.87 -20)"/><path class="j" d="M241.22,201.94c0,.08,0,.17,0,.28a2.11,2.11,0,0,0,0,.26c0,.07,0,.16-.06.25s-.05.18-.08.25-.06.16-.09.22a1.85,1.85,0,0,1-.13.29.82.82,0,0,1-.12.2,2.8,2.8,0,0,1-.2.32l-.15.18a3.06,3.06,0,0,1-.34.39c-.07,0-.12.11-.2.18l-.23.2-.28.23-.28.19-.45.3-49,28.28v-3l-10.83-6.3,15.64-9.07v-1.16l1,.58,21.25-12.33,0-7.41-9.94-5.76-2.28,1.33v-2.64L201,186.32l-6.61-3.81-11.51-6.67L180,177.51v-3.33l-9.94-5.75-2.23,1.3v-2.58l-9.94-5.75-10.3,6v2.29l-2-1.14-10.3,6v2.27l-2-1.14-10.31,6v2.28l-2-1.15-10.28,6V191l-2-1.13-10.3,6v2.27l-2-1.14-10.31,6v2.28l-2-1.15-10.31,6,0,2.27-2-1.13-10.3,6v2.27l-2-1.14-10.31,6,0,7.42L55.32,235l-2.45,1.41v-2.57l-9.94-5.74-10.28,6v7.43l9.93,5.73L44.81,246v2.58l9.94,5.74L57,253v2.58l9.95,5.75,2.2-1.29v2.57l9.95,5.74,2.27-1.32v2.65l10,5.74,21.82-12.66V261.3l1.28.74,16.09-9.34V251l1.46.84,5.89-3.41v2.84l10.8,6.28L108.62,280.7a11.44,11.44,0,0,1-1.27.6l-.38.13a9.07,9.07,0,0,1-.89.26,6,6,0,0,1-.81.21,11.24,11.24,0,0,1-1.16.2l-.24,0c-.5.05-1,.08-1.53.08l-.24,0c-.5,0-1-.05-1.48-.1l-.26,0a13.34,13.34,0,0,1-1.43-.25l-.27-.05c-.46-.13-.89-.25-1.31-.41l-.15,0a10.27,10.27,0,0,1-1.38-.65L21.08,237.26c-1.76-1-2.62-2.35-2.62-3.68,0,2.47,0,4.93,0,7.41,0,1.33.88,2.66,2.62,3.68L95.85,288.1a8,8,0,0,0,1.35.65h0a.38.38,0,0,0,.15.05q.44.17.9.3c.13,0,.26.05.4.1l.28.06.27.07q.43.09.9.15l.26,0,.23,0,.39,0,.89.05h.93l1-.07h.08l.23,0,.83-.11a3.37,3.37,0,0,1,.34-.09l.78-.19c.16-.05.33-.07.49-.12s.29-.12.43-.17l.37-.12a9.93,9.93,0,0,0,1.27-.61l130-75a3,3,0,0,1,.3-.18,1.43,1.43,0,0,1,.15-.11,2.16,2.16,0,0,0,.29-.21l.27-.21.24-.2.09-.08a.58.58,0,0,0,.1-.12c.12-.12.24-.25.35-.38l.09-.09a.1.1,0,0,1,.06-.08,3.62,3.62,0,0,0,.2-.33,1.1,1.1,0,0,0,.09-.14s0,0,0,0a2.63,2.63,0,0,0,.14-.3.87.87,0,0,0,.07-.17s0,0,0,0,.05-.19.07-.28a.81.81,0,0,0,0-.19.07.07,0,0,0,0-.05,1.24,1.24,0,0,0,0-.27,1.5,1.5,0,0,0,0-.2v-.06Q241.24,205.63,241.22,201.94Z" transform="translate(-7.87 -20)"/><path class="k" d="M238.62,198.26l-74.75-43.44a14.14,14.14,0,0,0-12.81,0l-129.94,75c-3.54,2-3.56,5.36,0,7.41L95.82,280.7a14.21,14.21,0,0,0,12.8,0l130-75C242.09,203.64,242.11,200.28,238.62,198.26Z" transform="translate(-7.87 -20)"/><polygon class="l" points="144.84 158.52 154.77 164.25 144.48 170.25 134.55 164.5 144.84 158.52"/><polygon class="l" points="160.69 163.41 170.63 169.16 160.34 175.14 150.4 169.39 160.69 163.41"/><polygon class="l" points="175.04 155.84 186.56 162.51 193.16 166.32 196.49 168.25 179.12 178.34 169.17 172.59 174.52 169.49 162.99 162.82 175.04 155.84"/><polygon class="l" points="149.11 170.14 159.05 175.89 148.76 181.86 138.82 176.12 149.11 170.14"/><polygon class="l" points="198.78 169.56 208.72 175.31 187.49 187.65 177.54 181.9 198.78 169.56"/><polygon class="l" points="176.54 182.49 186.47 188.23 170.38 197.57 160.44 191.82 176.54 182.49"/><polygon class="l" points="144.81 186.74 154.73 192.48 144.45 198.46 134.51 192.71 144.81 186.74"/><polygon class="l" points="150.05 141.4 159.98 147.15 149.69 153.11 139.74 147.38 150.05 141.4"/><polygon class="l" points="137.79 148.52 147.73 154.25 137.44 160.24 127.49 154.5 137.79 148.52"/><polygon class="l" points="162.22 148.43 172.16 154.18 156.21 163.44 146.25 157.7 162.22 148.43"/><polygon class="l" points="125.53 155.63 135.47 161.37 125.17 167.34 115.23 161.61 125.53 155.63"/><polygon class="l" points="113.26 162.74 123.21 168.49 112.91 174.46 102.97 168.72 113.26 162.74"/><polygon class="l" points="133.11 165.32 143.06 171.07 132.77 177.04 122.81 171.29 133.11 165.32"/><polygon class="l" points="101.01 169.87 110.95 175.61 100.65 181.58 90.71 175.84 101.01 169.87"/><polygon class="l" points="121.4 172.12 131.34 177.87 121.03 183.84 111.09 178.11 121.4 172.12"/><polygon class="l" points="167.84 173.35 177.79 179.1 167.49 185.08 157.56 179.34 167.84 173.35"/><polygon class="l" points="88.75 176.97 98.69 182.73 88.38 188.71 78.44 182.95 88.75 176.97"/><polygon class="l" points="137.52 176.86 147.46 182.6 137.17 188.58 127.22 182.84 137.52 176.86"/><polygon class="l" points="109.67 178.93 119.63 184.67 109.32 190.65 99.38 184.9 109.67 178.93"/><polygon class="l" points="156.25 180.09 166.2 185.83 155.9 191.81 145.95 186.06 156.25 180.09"/><polygon class="l" points="125.93 183.58 135.88 189.33 125.58 195.3 115.64 189.55 125.93 183.58"/><polygon class="l" points="76.49 184.08 86.43 189.84 76.14 195.8 66.18 190.07 76.49 184.08"/><polygon class="l" points="97.96 185.72 107.9 191.47 97.61 197.46 87.66 191.69 97.96 185.72"/><polygon class="l" points="114.35 190.3 124.3 196.05 113.99 202.04 104.05 196.29 114.35 190.3"/><polygon class="l" points="64.22 191.21 74.17 196.96 63.86 202.93 53.93 197.19 64.22 191.21"/><polygon class="l" points="86.23 192.53 96.17 198.27 85.89 204.25 75.95 198.51 86.23 192.53"/><polygon class="l" points="132.83 193.69 142.78 199.44 132.47 205.41 122.54 199.66 132.83 193.69"/><polygon class="l" points="102.77 197.03 112.71 202.77 102.42 208.75 92.47 203.01 102.77 197.03"/><polygon class="l" points="51.98 198.32 61.92 204.06 51.6 210.05 41.67 204.3 51.98 198.32"/><polygon class="l" points="74.53 199.33 84.46 205.09 74.16 211.05 64.22 205.31 74.53 199.33"/><polygon class="l" points="121.38 200.32 131.32 206.08 121.02 212.05 111.07 206.3 121.38 200.32"/><polygon class="l" points="91.19 203.75 101.13 209.5 90.83 215.48 80.88 209.73 91.19 203.75"/><polygon class="l" points="109.79 207.05 119.74 212.8 109.43 218.77 99.5 213.03 109.79 207.05"/><polygon class="l" points="35.05 208.14 44.99 213.88 34.69 219.86 24.76 214.11 35.05 208.14"/><polygon class="l" points="79.6 210.48 89.55 216.22 79.25 222.2 69.3 216.45 79.6 210.48"/><polygon class="l" points="159.39 192.44 169.33 198.19 124.09 224.43 114.15 218.7 159.39 192.44"/><polygon class="l" points="98.33 213.72 108.27 219.45 97.98 225.43 88.04 219.69 98.33 213.72"/><polygon class="l" points="62.28 206.44 72.23 212.18 46.85 226.9 36.92 221.15 62.28 206.44"/><polygon class="l" points="167.02 202.49 181.68 211.01 144.65 232.39 129.98 223.87 167.02 202.49"/><polygon class="l" points="67.97 217.24 77.92 222.98 59.04 233.93 49.1 228.18 67.97 217.24"/><polygon class="l" points="112.68 219.54 122.63 225.29 106.54 234.64 96.6 228.88 112.68 219.54"/><polygon class="l" points="86.62 220.5 96.56 226.24 71.21 240.97 61.26 235.22 86.62 220.5"/><polygon class="l" points="95.31 229.62 105.26 235.38 83.44 248.03 73.49 242.29 95.31 229.62"/><path class="k" d="M154.78,53.13a1.75,1.75,0,0,1-.24-.11c-.61-.37-1.21-.71-1.83-1.07s-1.21-.72-1.82-1.06c-1.18-.68-2.8-.59-4.57.44l-129.95,75A14.15,14.15,0,0,0,10,137.43l.24,86.45c0,2,.73,3.44,1.89,4.11l4.57,2.66c-1.16-.67-1.87-2.09-1.88-4.11l-.24-86.44A14.18,14.18,0,0,1,21,129L150.89,54c1.78-1,3.4-1.12,4.58-.43C155.23,53.41,155,53.28,154.78,53.13Z" transform="translate(-7.87 -20)"/><path class="j" d="M150.89,54c3.53-2,6.44-.39,6.45,3.67l.24,86.44a14.15,14.15,0,0,1-6.41,11.1l-129.94,75c-3.53,2-6.43.39-6.44-3.67l-.24-86.44A14.18,14.18,0,0,1,21,129Zm1.52,89.46-.22-79.17c0-2.43-1.75-3.42-3.87-2.2l-124.77,72a8.5,8.5,0,0,0-3.84,6.66l.23,79.15c0,2.44,1.74,3.41,3.87,2.19l124.76-72a8.48,8.48,0,0,0,3.84-6.64Z" transform="translate(-7.87 -20)"/><g class="a"><polygon class="m" points="25.88 179.4 22.44 177.41 22.16 79.11 25.6 81.11 25.88 179.4"/><polygon class="n" points="25.6 81.11 22.16 79.11 86.63 41.89 90.06 43.9 25.6 81.11"/><polygon class="o" points="90.06 43.9 90.34 142.19 25.88 179.4 25.6 81.11 90.06 43.9"/></g><g class="a"><polygon class="m" points="73.68 137.51 70.24 135.51 69.96 37.21 73.39 39.22 73.68 137.51"/><polygon class="n" points="73.39 39.22 69.96 37.21 134.43 0 137.86 2 73.39 39.22"/><polygon class="o" points="137.86 2 138.13 100.29 73.68 137.51 73.39 39.22 137.86 2"/></g><g class="a"><polygon class="m" points="55.69 172.95 52.26 170.96 51.97 72.66 55.42 74.65 55.69 172.95"/><polygon class="n" points="55.42 74.65 51.97 72.66 116.44 35.44 119.87 37.44 55.42 74.65"/><polygon class="p" points="119.87 37.44 120.15 135.74 55.69 172.95 55.42 74.65 119.87 37.44"/></g><polygon class="q" points="59.63 124.78 59.63 131.19 106.88 103.92 106.88 97.51 59.63 124.78"/><polygon class="q" points="59.63 142.46 106.88 115.19 106.88 108.78 59.63 136.05 59.63 142.46"/><polygon class="q" points="59.63 153.73 106.88 126.46 106.88 120.05 59.63 147.32 59.63 153.73"/><polygon class="q" points="110.4 95.48 110.4 101.88 115.89 98.71 115.89 92.31 110.4 95.48"/><polygon class="q" points="110.4 106.75 110.4 113.16 115.89 109.99 115.89 103.58 110.4 106.75"/><polygon class="q" points="110.4 118.02 110.4 124.43 115.89 121.26 115.89 114.86 110.4 118.02"/><polygon class="q" points="59.63 102.23 59.63 108.64 106.88 81.37 106.88 74.97 59.63 102.23"/><polygon class="q" points="59.63 119.91 106.88 92.65 106.88 86.24 59.63 113.5 59.63 119.91"/><polygon class="q" points="110.4 72.93 110.4 79.34 115.89 76.17 115.89 69.76 110.4 72.93"/><polygon class="q" points="110.4 84.21 110.4 90.61 115.89 87.44 115.89 81.03 110.4 84.21"/><path class="f" d="M78.25,94.74l8.63-5v3.06L84,94.49v9.79L81,106V96.19L78.25,97.8Z" transform="translate(-7.87 -20)"/><path class="f" d="M87.47,92.41a5.22,5.22,0,0,1,2.83-4.62s3.19-1.85,5-2.59v2.86L91.21,90.4a1.39,1.39,0,0,0-.78,1.44v.78l4.09-2.17v2.82l-4.09,2.52v.78c0,.92.49.62.93.37l3.91-2.26v2.83c-1.56,1.16-4.81,3.09-4.81,3.09-1,.6-3,1.53-3-1.15Z" transform="translate(-7.87 -20)"/><path class="f" d="M96,87.84a6.21,6.21,0,0,1,3-5.21,12.34,12.34,0,0,1,4.71-2.15v2.65c-1,.44-2.64,1.36-3.65,1.93-.82.48-1.13.69-1.13,1.43v.19c0,.54.09.79.92.31l1.43-.82c2.31-1.33,2.84.67,2.84,2.08v.58a6.07,6.07,0,0,1-3.08,5.72c-2.85,1.64-3.18,1.84-4.71,2.11V94c.62-.28,2.54-1.26,3.94-2.08.65-.38.9-.71.9-1.24v-.27c0-.52-.13-.7-.81-.32l-1.36.79c-2.9,1.67-3-1.16-3-2Z" transform="translate(-7.87 -20)"/><path class="f" d="M104.39,79.65l8.64-5v3l-2.9,1.67v9.79l-2.94,1.71v-9.8l-2.8,1.62Z" transform="translate(-7.87 -20)"/><g class="a"><polygon class="r" points="61.95 288.02 61.96 291.3 66.77 294.13 66.76 290.85 61.95 288.02"/><polygon class="r" points="71.53 293.65 71.54 296.93 76.36 299.77 76.35 296.49 71.53 293.65"/><polygon class="r" points="81.61 299.59 81.62 302.87 86.44 305.7 86.44 302.43 81.61 299.59"/><polygon class="r" points="91.2 305.23 91.22 308.51 96.03 311.33 96.01 308.06 91.2 305.23"/><polygon class="r" points="0.1 298.69 0.1 301.97 16.83 311.81 16.82 308.53 0.1 298.69"/><polygon class="r" points="26.05 309 26.06 312.28 61.96 291.3 61.95 288.02 26.05 309"/><polygon class="s" points="26.05 309 26.06 312.28 30.87 315.1 30.86 311.83 26.05 309"/><polygon class="t" points="30.86 311.83 30.87 315.1 66.77 294.13 66.76 290.85 30.86 311.83"/><polygon class="f" points="26.05 309 30.86 311.83 66.76 290.85 61.95 288.02 26.05 309"/><polygon class="r" points="100.78 310.86 100.8 314.14 105.62 316.97 105.61 313.7 100.78 310.86"/><polygon class="t" points="0 318.37 0.01 321.63 16.83 311.81 16.82 308.53 0 318.37"/><polygon class="r" points="18.42 324.69 18.43 327.96 71.54 296.93 71.53 293.65 18.42 324.69"/><polygon class="t" points="23.25 327.52 23.25 330.8 76.36 299.77 76.35 296.49 23.25 327.52"/><polygon class="s" points="18.42 324.69 18.43 327.96 23.25 330.8 23.25 327.52 18.42 324.69"/><polygon class="r" points="28.51 330.62 28.52 333.89 81.62 302.87 81.61 299.59 28.51 330.62"/><polygon class="t" points="33.33 333.45 33.34 336.73 86.44 305.7 86.44 302.43 33.33 333.45"/><polygon class="s" points="28.51 330.62 28.52 333.89 33.34 336.73 33.33 333.45 28.51 330.62"/><polygon class="m" points="28.51 330.62 33.33 333.45 86.44 302.43 81.61 299.59 28.51 330.62"/><polygon class="r" points="38.1 336.26 38.11 339.54 91.22 308.51 91.2 305.23 38.1 336.26"/><polygon class="t" points="42.91 339.09 42.92 342.37 96.03 311.33 96.01 308.06 42.91 339.09"/><polygon class="s" points="38.1 336.26 38.11 339.54 42.92 342.37 42.91 339.09 38.1 336.26"/><polygon class="r" points="47.69 341.9 47.69 345.17 100.8 314.14 100.78 310.86 47.69 341.9"/><polygon class="s" points="47.69 341.9 47.69 345.17 52.51 348.01 52.5 344.74 47.69 341.9"/><polygon class="t" points="52.5 344.74 52.51 348.01 105.62 316.97 105.61 313.7 52.5 344.74"/><path class="l" d="M8,318.69,52,293l80.61,47.41L71.74,375.93,7.87,338.37l16.82-9.84ZM41.2,353.45l53.11-31-4.82-2.84-53.11,31,4.82,2.83Zm19.17,11.28,53.11-31-4.82-2.84-53.1,31,4.81,2.83Zm-29.25-17.2,53.11-31-4.82-2.84-53.12,31,4.83,2.84Zm19.66,11.56,53.11-31-4.81-2.83L46,356.26l4.81,2.83Zm19-51.07L33.92,329l4.81,2.83,35.9-21L69.83,308Z" transform="translate(-7.87 -20)"/><polygon class="m" points="18.42 324.69 23.25 327.52 76.35 296.49 71.53 293.65 18.42 324.69"/><polygon class="m" points="38.1 336.26 42.91 339.09 96.01 308.06 91.2 305.23 38.1 336.26"/><polygon class="m" points="47.69 341.9 52.5 344.74 105.61 313.7 100.78 310.86 47.69 341.9"/><polygon class="u" points="0 318.37 0.01 321.63 63.88 359.21 63.87 355.93 0 318.37"/><polygon class="n" points="63.87 355.93 63.88 359.21 124.7 323.67 124.69 320.39 63.87 355.93"/></g><g class="a"><polygon class="r" points="61.95 282.91 61.96 286.19 66.77 289.02 66.76 285.74 61.95 282.91"/><polygon class="r" points="71.53 288.54 71.54 291.82 76.36 294.66 76.35 291.38 71.53 288.54"/><polygon class="r" points="81.61 294.48 81.62 297.75 86.44 300.58 86.44 297.31 81.61 294.48"/><polygon class="r" points="91.2 300.12 91.22 303.39 96.03 306.23 96.01 302.94 91.2 300.12"/><polygon class="r" points="0.1 293.58 0.1 296.86 16.83 306.7 16.82 303.42 0.1 293.58"/><polygon class="r" points="26.05 303.89 26.06 307.16 61.96 286.19 61.95 282.91 26.05 303.89"/><polygon class="s" points="26.05 303.89 26.06 307.16 30.87 309.99 30.86 306.71 26.05 303.89"/><polygon class="t" points="30.86 306.71 30.87 309.99 66.77 289.02 66.76 285.74 30.86 306.71"/><polygon class="f" points="26.05 303.89 30.86 306.71 66.76 285.74 61.95 282.91 26.05 303.89"/><polygon class="r" points="100.78 305.76 100.8 309.03 105.62 311.87 105.61 308.59 100.78 305.76"/><polygon class="t" points="0 313.26 0.01 316.53 16.83 306.7 16.82 303.42 0 313.26"/><polygon class="r" points="18.42 319.58 18.43 322.85 71.54 291.82 71.53 288.54 18.42 319.58"/><polygon class="t" points="23.25 322.41 23.25 325.69 76.36 294.66 76.35 291.38 23.25 322.41"/><polygon class="s" points="18.42 319.58 18.43 322.85 23.25 325.69 23.25 322.41 18.42 319.58"/><polygon class="r" points="28.51 325.51 28.52 328.79 81.62 297.75 81.61 294.48 28.51 325.51"/><polygon class="t" points="33.33 328.34 33.34 331.62 86.44 300.58 86.44 297.31 33.33 328.34"/><polygon class="s" points="28.51 325.51 28.52 328.79 33.34 331.62 33.33 328.34 28.51 325.51"/><polygon class="m" points="28.51 325.51 33.33 328.34 86.44 297.31 81.61 294.48 28.51 325.51"/><polygon class="r" points="38.1 331.16 38.11 334.42 91.22 303.39 91.2 300.12 38.1 331.16"/><polygon class="t" points="42.91 333.98 42.92 337.25 96.03 306.23 96.01 302.94 42.91 333.98"/><polygon class="s" points="38.1 331.16 38.11 334.42 42.92 337.25 42.91 333.98 38.1 331.16"/><polygon class="r" points="47.69 336.79 47.69 340.06 100.8 309.03 100.78 305.76 47.69 336.79"/><polygon class="s" points="47.69 336.79 47.69 340.06 52.51 342.89 52.5 339.62 47.69 336.79"/><polygon class="t" points="52.5 339.62 52.51 342.89 105.62 311.87 105.61 308.59 52.5 339.62"/><path class="l" d="M8,313.58l44-25.71,80.61,47.41L71.74,370.83,7.87,333.26l16.82-9.84ZM41.2,348.34l53.11-31-4.82-2.83-53.11,31,4.82,2.83Zm19.17,11.28,53.11-31-4.82-2.83-53.1,31,4.81,2.83ZM31.12,342.41l53.11-31-4.82-2.84-53.12,31,4.83,2.83ZM50.78,354l53.11-31-4.81-2.82L46,351.16,50.78,354Zm19-51.07-35.91,21,4.81,2.82,35.9-21-4.8-2.83Z" transform="translate(-7.87 -20)"/><polygon class="m" points="18.42 319.58 23.25 322.41 76.35 291.38 71.53 288.54 18.42 319.58"/><polygon class="m" points="38.1 331.16 42.91 333.98 96.01 302.94 91.2 300.12 38.1 331.16"/><polygon class="m" points="47.69 336.79 52.5 339.62 105.61 308.59 100.78 305.76 47.69 336.79"/><polygon class="u" points="0 313.26 0.01 316.53 63.88 354.1 63.87 350.83 0 313.26"/><polygon class="n" points="63.87 350.83 63.88 354.1 124.7 318.55 124.69 315.28 63.87 350.83"/></g><g class="a"><polygon class="r" points="61.95 277.8 61.96 281.08 66.77 283.9 66.76 280.62 61.95 277.8"/><polygon class="r" points="71.53 283.43 71.54 286.71 76.36 289.54 76.35 286.27 71.53 283.43"/><polygon class="r" points="81.61 289.37 81.62 292.64 86.44 295.48 86.44 292.2 81.61 289.37"/><polygon class="r" points="91.2 295.01 91.22 298.28 96.03 301.11 96.01 297.83 91.2 295.01"/><polygon class="r" points="0.1 288.46 0.1 291.75 16.83 301.59 16.82 298.31 0.1 288.46"/><polygon class="r" points="26.05 298.77 26.06 302.05 61.96 281.08 61.95 277.8 26.05 298.77"/><polygon class="s" points="26.05 298.77 26.06 302.05 30.87 304.88 30.86 301.6 26.05 298.77"/><polygon class="t" points="30.86 301.6 30.87 304.88 66.77 283.9 66.76 280.62 30.86 301.6"/><polygon class="f" points="26.05 298.77 30.86 301.6 66.76 280.62 61.95 277.8 26.05 298.77"/><polygon class="r" points="100.78 300.64 100.8 303.92 105.62 306.75 105.61 303.48 100.78 300.64"/><polygon class="t" points="0 308.14 0.01 311.42 16.83 301.59 16.82 298.31 0 308.14"/><polygon class="r" points="18.42 314.46 18.43 317.74 71.54 286.71 71.53 283.43 18.42 314.46"/><polygon class="t" points="23.25 317.3 23.25 320.57 76.36 289.54 76.35 286.27 23.25 317.3"/><polygon class="s" points="18.42 314.46 18.43 317.74 23.25 320.57 23.25 317.3 18.42 314.46"/><polygon class="r" points="28.51 320.4 28.52 323.67 81.62 292.64 81.61 289.37 28.51 320.4"/><polygon class="t" points="33.33 323.23 33.34 326.5 86.44 295.48 86.44 292.2 33.33 323.23"/><polygon class="s" points="28.51 320.4 28.52 323.67 33.34 326.5 33.33 323.23 28.51 320.4"/><polygon class="m" points="28.51 320.4 33.33 323.23 86.44 292.2 81.61 289.37 28.51 320.4"/><polygon class="r" points="38.1 326.04 38.11 329.31 91.22 298.28 91.2 295.01 38.1 326.04"/><polygon class="t" points="42.91 328.87 42.92 332.14 96.03 301.11 96.01 297.83 42.91 328.87"/><polygon class="s" points="38.1 326.04 38.11 329.31 42.92 332.14 42.91 328.87 38.1 326.04"/><polygon class="r" points="47.69 331.68 47.69 334.95 100.8 303.92 100.78 300.64 47.69 331.68"/><polygon class="s" points="47.69 331.68 47.69 334.95 52.51 337.79 52.5 334.51 47.69 331.68"/><polygon class="t" points="52.5 334.51 52.51 337.79 105.62 306.75 105.61 303.48 52.5 334.51"/><path class="l" d="M8,308.46l44-25.7,80.61,47.41L71.74,365.72,7.87,328.14l16.82-9.83ZM41.2,343.23l53.11-31-4.82-2.83-53.11,31,4.82,2.83Zm19.17,11.28,53.11-31-4.82-2.84-53.1,31,4.81,2.83ZM31.12,337.3l53.11-31-4.82-2.84-53.12,31,4.83,2.84Zm19.66,11.57,53.11-31L99.08,315,46,346l4.81,2.83Zm19-51.07-35.91,21,4.81,2.83,35.9-21-4.8-2.82Z" transform="translate(-7.87 -20)"/><polygon class="m" points="18.42 314.46 23.25 317.3 76.35 286.27 71.53 283.43 18.42 314.46"/><polygon class="m" points="38.1 326.04 42.91 328.87 96.01 297.83 91.2 295.01 38.1 326.04"/><polygon class="m" points="47.69 331.68 52.5 334.51 105.61 303.48 100.78 300.64 47.69 331.68"/><polygon class="u" points="0 308.14 0.01 311.42 63.88 348.99 63.87 345.71 0 308.14"/><polygon class="n" points="63.87 345.71 63.88 348.99 124.7 313.44 124.69 310.17 63.87 345.71"/></g><g class="a"><polygon class="r" points="61.95 272.69 61.96 275.96 66.77 278.79 66.76 275.52 61.95 272.69"/><polygon class="r" points="71.53 278.32 71.54 281.6 76.36 284.43 76.35 281.16 71.53 278.32"/><polygon class="r" points="81.61 284.25 81.62 287.53 86.44 290.36 86.44 287.09 81.61 284.25"/><polygon class="r" points="91.2 289.89 91.22 293.17 96.03 296 96.01 292.72 91.2 289.89"/><polygon class="r" points="0.1 283.36 0.1 286.63 16.83 296.47 16.82 293.2 0.1 283.36"/><polygon class="r" points="26.05 293.67 26.06 296.94 61.96 275.96 61.95 272.69 26.05 293.67"/><polygon class="s" points="26.05 293.67 26.06 296.94 30.87 299.77 30.86 296.49 26.05 293.67"/><polygon class="t" points="30.86 296.49 30.87 299.77 66.77 278.79 66.76 275.52 30.86 296.49"/><polygon class="f" points="26.05 293.67 30.86 296.49 66.76 275.52 61.95 272.69 26.05 293.67"/><polygon class="r" points="100.78 295.53 100.8 298.8 105.62 301.64 105.61 298.36 100.78 295.53"/><polygon class="v" points="0.1 283.36 0 303.03 16.82 293.2 0.1 283.36"/><polygon class="t" points="0 303.03 0.01 306.31 16.83 296.47 16.82 293.2 0 303.03"/><polygon class="r" points="18.42 309.35 18.43 312.63 71.54 281.6 71.53 278.32 18.42 309.35"/><polygon class="t" points="23.25 312.19 23.25 315.47 76.36 284.43 76.35 281.16 23.25 312.19"/><polygon class="s" points="18.42 309.35 18.43 312.63 23.25 315.47 23.25 312.19 18.42 309.35"/><polygon class="r" points="28.51 315.28 28.52 318.56 81.62 287.53 81.61 284.25 28.51 315.28"/><polygon class="t" points="33.33 318.12 33.34 321.39 86.44 290.36 86.44 287.09 33.33 318.12"/><polygon class="s" points="28.51 315.28 28.52 318.56 33.34 321.39 33.33 318.12 28.51 315.28"/><polygon class="m" points="28.51 315.28 33.33 318.12 86.44 287.09 81.61 284.25 28.51 315.28"/><polygon class="r" points="38.1 320.93 38.11 324.2 91.22 293.17 91.2 289.89 38.1 320.93"/><polygon class="t" points="42.91 323.75 42.92 327.03 96.03 296 96.01 292.72 42.91 323.75"/><polygon class="s" points="38.1 320.93 38.11 324.2 42.92 327.03 42.91 323.75 38.1 320.93"/><polygon class="r" points="47.69 326.56 47.69 329.84 100.8 298.8 100.78 295.53 47.69 326.56"/><polygon class="s" points="47.69 326.56 47.69 329.84 52.51 332.67 52.5 329.4 47.69 326.56"/><polygon class="t" points="52.5 329.4 52.51 332.67 105.62 301.64 105.61 298.36 52.5 329.4"/><path class="l" d="M8,303.36l44-25.7,80.61,47.4L71.74,360.6,7.87,323l16.82-9.83ZM41.2,338.12l53.11-31-4.82-2.84-53.11,31,4.82,2.84ZM60.37,349.4l53.11-31-4.82-2.83-53.1,31,4.81,2.84ZM31.12,332.19l53.11-31-4.82-2.84-53.12,31,4.83,2.84Zm19.66,11.56,53.11-31-4.81-2.83L46,340.93l4.81,2.82Zm19-51.06-35.91,21,4.81,2.82,35.9-21-4.8-2.83Z" transform="translate(-7.87 -20)"/><polygon class="m" points="18.42 309.35 23.25 312.19 76.35 281.16 71.53 278.32 18.42 309.35"/><polygon class="m" points="38.1 320.93 42.91 323.75 96.01 292.72 91.2 289.89 38.1 320.93"/><polygon class="m" points="47.69 326.56 52.5 329.4 105.61 298.36 100.78 295.53 47.69 326.56"/><polygon class="u" points="0 303.03 0.01 306.31 63.88 343.87 63.87 340.6 0 303.03"/><polygon class="n" points="63.87 340.6 63.88 343.87 124.7 308.33 124.69 305.06 63.87 340.6"/><polygon class="f" points="9.4 303.46 14.21 306.29 50.11 285.31 45.3 282.49 9.4 303.46"/></g><g class="a"><path class="w" d="M59.94,293.49c.19.25.54.3.94.07a2.53,2.53,0,0,0,1.16-2c0-.48-.21-.78-.53-.83-1.4-.22-2.8-.44-4.2-.64Z" transform="translate(-7.87 -20)"/><path class="w" d="M57.31,290.12l2.63,3.37a1,1,0,0,1-.17-.62Z" transform="translate(-7.87 -20)"/><path class="w" d="M61.51,290.76c-1.4-.22-2.8-.44-4.2-.64l2.46,2.75a2.54,2.54,0,0,1,1.15-2A1,1,0,0,1,61.51,290.76Z" transform="translate(-7.87 -20)"/><path class="w" d="M59.77,292.87c0,.73.49,1,1.11.69a2.53,2.53,0,0,0,1.16-2c0-.74-.49-1-1.12-.7A2.54,2.54,0,0,0,59.77,292.87Z" transform="translate(-7.87 -20)"/></g><path class="x" d="M59.77,292.87c0,.73.49,1,1.11.69a2.53,2.53,0,0,0,1.16-2c0-.74-.49-1-1.12-.7A2.54,2.54,0,0,0,59.77,292.87Z" transform="translate(-7.87 -20)"/><path class="x" d="M63.87,298.55c.5.64,1.37.74,2.38.18a6.36,6.36,0,0,0,2.88-4.94c0-1.21-.52-2-1.34-2.08l-6.28-.95c.32.05.53.35.53.83a2.53,2.53,0,0,1-1.16,2c-.4.23-.75.18-.94-.07Z" transform="translate(-7.87 -20)"/><path class="x" d="M59.94,293.49l3.93,5.06a2.49,2.49,0,0,1-.43-1.55l-3.67-4.13A1,1,0,0,0,59.94,293.49Z" transform="translate(-7.87 -20)"/><path class="x" d="M67.79,291.71l-6.28-.95a1,1,0,0,0-.59.13,2.54,2.54,0,0,0-1.15,2L63.44,297a6.32,6.32,0,0,1,2.89-4.94A2.36,2.36,0,0,1,67.79,291.71Z" transform="translate(-7.87 -20)"/><path class="x" d="M63.44,297c0,1.84,1.23,2.61,2.81,1.73a6.36,6.36,0,0,0,2.88-4.94c0-1.84-1.23-2.62-2.8-1.73A6.32,6.32,0,0,0,63.44,297Z" transform="translate(-7.87 -20)"/><g class="a"><path class="w" d="M63.44,297c0,1.84,1.23,2.61,2.81,1.73a6.36,6.36,0,0,0,2.88-4.94c0-1.84-1.23-2.62-2.8-1.73A6.32,6.32,0,0,0,63.44,297Z" transform="translate(-7.87 -20)"/><path class="w" d="M105.39,323.09a2,2,0,0,0,2-.17,6.33,6.33,0,0,0,2.87-4.94,2,2,0,0,0-.82-1.9L68.3,291.89a2.05,2.05,0,0,1,.83,1.9,6.36,6.36,0,0,1-2.88,4.94,2,2,0,0,1-2,.17Z" transform="translate(-7.87 -20)"/><path class="w" d="M64.27,298.9l41.12,24.19a2.06,2.06,0,0,1-.83-1.91L63.44,297A2.06,2.06,0,0,0,64.27,298.9Z" transform="translate(-7.87 -20)"/><path class="w" d="M109.42,316.08,68.3,291.89a1.93,1.93,0,0,0-2,.17A6.32,6.32,0,0,0,63.44,297l41.12,24.18a6.36,6.36,0,0,1,2.89-4.93A1.93,1.93,0,0,1,109.42,316.08Z" transform="translate(-7.87 -20)"/><path class="w" d="M104.56,321.18c0,1.85,1.23,2.63,2.81,1.74a6.33,6.33,0,0,0,2.87-4.94c0-1.84-1.22-2.62-2.79-1.73A6.36,6.36,0,0,0,104.56,321.18Z" transform="translate(-7.87 -20)"/></g><path class="x" d="M104.56,321.18c0,1.85,1.23,2.63,2.81,1.74a6.33,6.33,0,0,0,2.87-4.94c0-1.84-1.22-2.62-2.79-1.73A6.36,6.36,0,0,0,104.56,321.18Z" transform="translate(-7.87 -20)"/><path class="x" d="M111.46,326.66a2,2,0,0,0,2-.17,6.34,6.34,0,0,0,2.88-4.94,2.07,2.07,0,0,0-.83-1.91l-6.07-3.56a2,2,0,0,1,.82,1.9,6.33,6.33,0,0,1-2.87,4.94,2,2,0,0,1-2,.17Z" transform="translate(-7.87 -20)"/><path class="x" d="M105.39,323.09l6.07,3.57a2.07,2.07,0,0,1-.83-1.91l-6.07-3.57A2.06,2.06,0,0,0,105.39,323.09Z" transform="translate(-7.87 -20)"/><path class="x" d="M115.49,319.64l-6.07-3.56a1.93,1.93,0,0,0-2,.17,6.36,6.36,0,0,0-2.89,4.93l6.07,3.57a6.35,6.35,0,0,1,2.89-4.93A2,2,0,0,1,115.49,319.64Z" transform="translate(-7.87 -20)"/><path class="x" d="M110.63,324.75c0,1.85,1.24,2.62,2.81,1.74a6.34,6.34,0,0,0,2.88-4.94c0-1.84-1.23-2.62-2.8-1.73A6.35,6.35,0,0,0,110.63,324.75Z" transform="translate(-7.87 -20)"/></svg>