<svg viewBox="0 0 472 472.00001" xmlns="http://www.w3.org/2000/svg"><path d="m144 296c8.835938 0 16-7.164062 16-16v-8h-80v8c0 8.835938 7.164062 16 16 16zm0 0" fill="#8c8c8c"/><path d="m80 248h80v24h-80zm0 0" fill="#d9d9d9"/><path d="m160 208c-10.257812 3.925781-21.042969 6.3125-32 7.078125v.410156-.410156c-2.664062.195313-5.320312.410156-8 .410156s-5.367188-.214843-8-.410156v.410156-.410156c-10.957031-.765625-21.742188-3.152344-32-7.078125v40h80zm0 0" fill="#8c8c8c"/><path d="m121.351562 472h-97.351562c-13.253906 0-24-10.746094-24-24s10.746094-24 24-24h112c4.417969 0 8-3.582031 8-8s-3.582031-8-8-8h-112c-13.253906 0-24-10.746094-24-24s10.746094-24 24-24h56c17.671875 0 32-14.328125 32-32v-24h16v24c-.027344 26.5-21.5 47.972656-48 48h-56c-4.417969 0-8 3.582031-8 8s3.582031 8 8 8h112c13.253906 0 24 10.746094 24 24s-10.746094 24-24 24h-112c-4.417969 0-8 3.582031-8 8s3.582031 8 8 8h97.351562c29.074219 0 57.597657-7.902344 82.527344-22.855469l8.242188 13.710938c-27.417969 16.453125-58.792969 25.144531-90.769532 25.144531zm0 0" fill="#8c8c8c"/><path d="m136 312v-16h-32v16c0 8.835938 7.164062 16 16 16s16-7.164062 16-16zm0 0" fill="#d9d9d9"/><path d="m472 312c0 75.109375-60.890625 136-136 136s-136-60.890625-136-136 60.890625-136 136-136 136 60.890625 136 136zm0 0" fill="#8c8c8c"/><path d="m440 312c0 57.4375-46.5625 104-104 104s-104-46.5625-104-104 46.5625-104 104-104 104 46.5625 104 104zm0 0" fill="#d9d9d9"/><path d="m232 112c0 61.855469-50.144531 112-112 112s-112-50.144531-112-112 50.144531-112 112-112 112 50.144531 112 112zm0 0" fill="#ffb41f"/><path d="m400 312c0 35.347656-28.652344 64-64 64s-64-28.652344-64-64 28.652344-64 64-64 64 28.652344 64 64zm0 0" fill="#1cc8eb"/><path d="m360 312c0 13.253906-10.746094 24-24 24s-24-10.746094-24-24 10.746094-24 24-24 24 10.746094 24 24zm0 0" fill="#6ed6eb"/><path d="m160 111.28125c-17.425781-.089844-31.6875 13.847656-32 31.269531l-1.519531 16.730469h-13.015625l-1.464844-16c0-17.675781-14.328125-32-32-32s-32 14.324219-32 32c0 17.671875 14.328125 32 32 32h18.871094l4.304687 47.320312c5.355469.855469 10.769531 1.324219 16.191407 1.398438l-4.445313-48.6875h10.132813l-4.421876 48.6875c5.417969-.066406 10.828126-.523438 16.183594-1.367188l4.289063-47.320312h18.894531c17.671875 0 32-14.328125 32-32s-14.328125-32-32-32zm-80 48c-8.835938 0-16-7.164062-16-16s7.164062-16 16-16c4.351562.058594 8.496094 1.863281 11.503906 5.007812 3.007813 3.140626 4.628906 7.363282 4.496094 11.710938l1.390625 15.28125zm80 0h-17.449219l1.449219-16c0-8.835938 7.164062-16 16-16s16 7.164062 16 16-7.164062 16-16 16zm0 0" fill="#ffce6b"/><path d="m406 162.3125c-42.324219-24.195312-92.46875-30.773438-139.601562-18.3125-2.585938.695312-5.347657.046875-7.355469-1.722656-2.011719-1.765625-3.003907-4.425782-2.644531-7.078125 5.753906-39.703125-3.929688-80.097657-27.054688-112.878907l13.121094-9.160156c20.59375 29.476563 31.605468 64.578125 31.535156 100.535156 0 3.898438-.167969 7.890626-.503906 12.144532 48.027344-9.800782 97.980468-1.757813 140.503906 22.625zm0 0" fill="#fa0"/><path d="m452 200c-5.089844-5.765625-10.535156-11.210938-16.304688-16.304688l10.585938-12c6.265625 5.535157 12.183594 11.449219 17.71875 17.710938zm0 0" fill="#fa0"/><path d="m264 384-40-8-40 56 24 8 8 24 55.992188-40zm0 0" fill="#ffb41f"/><path d="m221.65625 437.65625-11.3125-11.3125 117.65625-114.34375h8v8zm0 0" fill="#a3771d"/><path d="m120 0c-27.058594-.0117188-53.199219 9.820312-73.542969 27.664062 50.421875-24.984374 111.558594-8.628906 142.769531 38.199219 31.207032 46.824219 22.78125 109.546875-19.683593 146.472657 46.679687-23.011719 71.339843-75.15625 59.515625-125.835938-11.824219-50.679688-57.015625-86.5234375-109.058594-86.5zm0 0" fill="#fa0"/></svg>