<svg xmlns="http://www.w3.org/2000/svg" viewBox="0 0 29.13 25.15"><defs><style>.a{isolation:isolate;}.b{fill:#1e2c4d;}.c{fill:#1d2b4b;}.d{fill:#1c2a49;}.e{fill:#1b2846;}.f{fill:#1a2744;}.g{fill:#192642;}.h{fill:#18243f;}.i{fill:#17233d;}.j{fill:#202f52;}.k{fill:#223359;}.l{fill:#273a66;}.m{fill:#6c131c;}.n{fill:#ed604f;}.o{fill:#ab3529;}.p{fill:#e0808a;}.q{fill:#ed7f72;}.r{fill:#bfbfbf;}.s{fill:#fff;}.t{fill:#6b1715;}.u{fill:#9b9b9b;}</style></defs><title>megaphone</title><g class="a"><g class="a"><g class="a"><path class="b" d="M7,22.67l1.44-.83v.1L7,22.78s0-.07,0-.11Z" transform="translate(-0.53 -3)"/><path class="c" d="M7,22.78l1.44-.84a1,1,0,0,1,0,.16L7,22.94c0-.05,0-.1,0-.16Z" transform="translate(-0.53 -3)"/><path class="d" d="M7,22.94l1.44-.84v.15L7,23.09v-.15Z" transform="translate(-0.53 -3)"/><path class="e" d="M7,23.09l1.44-.84a.61.61,0,0,1,0,.14L7,23.23c0-.05,0-.09,0-.14Z" transform="translate(-0.53 -3)"/><path class="f" d="M7,23.23l1.44-.84a.59.59,0,0,1,0,.14L7,23.37a.59.59,0,0,0,0-.14Z" transform="translate(-0.53 -3)"/><path class="g" d="M7,23.37l1.44-.84a.83.83,0,0,1,0,.15l-1.44.83s0-.09,0-.14Z" transform="translate(-0.53 -3)"/><path class="h" d="M6.93,23.51l1.44-.83-.07.16-1.45.84a.89.89,0,0,0,.08-.17Z" transform="translate(-0.53 -3)"/><path class="i" d="M6.85,23.68l1.45-.84a.7.7,0,0,1-.27.27L6.59,24a.68.68,0,0,0,.26-.27Z" transform="translate(-0.53 -3)"/></g></g><polygon class="j" points="0.72 5.38 2.16 4.54 3.51 5.32 2.07 6.16 0.72 5.38"/><polygon class="k" points="3.6 7.04 5.04 6.2 7.88 18.84 6.43 19.67 3.6 7.04"/><polygon class="j" points="2.07 6.16 3.51 5.32 5.04 6.2 3.6 7.04 2.07 6.16"/><path class="l" d="M4.13,10,7,22.67c.16,1-.31,1.56-1.07,1.32a1.41,1.41,0,0,1-.31-.14A3.13,3.13,0,0,1,4.23,21.8l-3-13.42,1.35.78Z" transform="translate(-0.53 -3)"/></g><g class="a"><path class="m" d="M1.6,7c0,.64.43.91,1,.6a2.18,2.18,0,0,0,1-1.7c0-.64-.43-.91-1-.6A2.19,2.19,0,0,0,1.6,7Z" transform="translate(-0.53 -3)"/><g class="a"><g class="a"><path class="n" d="M2.63,12.25A4.29,4.29,0,0,1,.53,8.42,1.81,1.81,0,0,1,1.6,7c0,.64.43.91,1,.6a2.18,2.18,0,0,0,1-1.7c0-.64-.43-.91-1-.6A2.19,2.19,0,0,0,1.6,7,1.81,1.81,0,0,0,.53,8.42c.17-4,4-6.62,7.15-4.86a2.51,2.51,0,0,1,1,2.36A7.85,7.85,0,0,1,5.1,12a2.47,2.47,0,0,1-2.47.21Z" transform="translate(-0.53 -3)"/><path class="n" d="M.53,8.42a6.67,6.67,0,0,1,0-.67l.05-.28c0-.1.05-.22.07-.31l.08-.27.09-.27L1,6.36a1.89,1.89,0,0,0,.11-.25l.13-.24.13-.23.14-.23a1.7,1.7,0,0,1,.15-.22L1.79,5c.06-.06.13-.15.18-.21l.19-.21.21-.21.21-.19L2.84,4l.24-.17.32-.19.28-.15a6.43,6.43,0,0,1,.69-.26l.31-.08L5.28,3H5.6l.53,0,.32.06a3.76,3.76,0,0,1,.48.13l.31.12.44.22a2.51,2.51,0,0,1,1,2.36,6.59,6.59,0,0,1-.62,2.6v0c-.34-1.6-1.72-1.06-2.45.13-.82,1.36-.2,2.38.86,2.15l.22-.07A6.2,6.2,0,0,1,5.1,12a2.47,2.47,0,0,1-2.47.21l-.28-.17a4.24,4.24,0,0,1-.63-.54l-.21-.24a5.78,5.78,0,0,1-.39-.55L1,10.47c-.07-.16-.16-.38-.22-.54l-.09-.3c0-.15-.07-.34-.09-.49l0-.31c0-.12,0-.29,0-.41A1.81,1.81,0,0,1,1.6,7c0,.64.43.91,1,.6a2.18,2.18,0,0,0,1-1.7c0-.64-.43-.91-1-.6A2.19,2.19,0,0,0,1.6,7,1.81,1.81,0,0,0,.53,8.42Z" transform="translate(-0.53 -3)"/><path class="o" d="M.53,8.42a6.67,6.67,0,0,1,0-.67l.05-.28c0-.1.05-.22.07-.31l.08-.27.09-.27L1,6.36a1.89,1.89,0,0,0,.11-.25l.13-.24.13-.23.14-.23a1.7,1.7,0,0,1,.15-.22L1.79,5c.06-.06.13-.15.18-.21l.19-.21.21-.21.21-.19L2.84,4l.24-.17.32-.19.28-.15a6.43,6.43,0,0,1,.69-.26l.31-.08L5.28,3H5.6l.53,0,.32.06a3.76,3.76,0,0,1,.48.13l.31.12.44.22a2.51,2.51,0,0,1,1,2.36c0,.11,0,.23,0,.35l-.18-.12C6.22,5,3.35,9.55,4,11.3a1.61,1.61,0,0,0,.85.88,2.3,2.3,0,0,1-2.2.07l-.28-.17a4.24,4.24,0,0,1-.63-.54l-.21-.24a5.78,5.78,0,0,1-.39-.55L1,10.47c-.07-.16-.16-.38-.22-.54l-.09-.3c0-.15-.07-.34-.09-.49l0-.31c0-.12,0-.29,0-.41A1.81,1.81,0,0,1,1.6,7c0,.64.43.91,1,.6a2.18,2.18,0,0,0,1-1.7c0-.64-.43-.91-1-.6A2.19,2.19,0,0,0,1.6,7,1.81,1.81,0,0,0,.53,8.42Z" transform="translate(-0.53 -3)"/><path class="p" d="M7.21,8.4c.1.11.3.44-.12,1.11,0,0-.39.48-.81.38-.16,0-.34-.16-.31-.56a1.55,1.55,0,0,1,.4-.79c.31-.23.58-.42.84-.14Z" transform="translate(-0.53 -3)"/></g></g><g class="a"><g class="a"><path class="o" d="M5.45,13.89,2.63,12.25a2.3,2.3,0,0,0,2.2-.07l2.82,1.64a2.33,2.33,0,0,1-2.2.07Z" transform="translate(-0.53 -3)"/><path class="n" d="M7.65,13.82,4.83,12.18,5.1,12a6,6,0,0,0,1.62-1.35l2.82,1.64a6.17,6.17,0,0,1-1.62,1.35l-.27.14Z" transform="translate(-0.53 -3)"/><path class="p" d="M9.54,12.33,6.72,10.69A8.17,8.17,0,0,0,8.1,8.52l2.82,1.64a8.17,8.17,0,0,1-1.38,2.17Z" transform="translate(-0.53 -3)"/><path class="n" d="M10.92,10.16,8.1,8.52a7,7,0,0,0,.61-2.25L11.52,7.9a6.78,6.78,0,0,1-.6,2.26Z" transform="translate(-0.53 -3)"/><path class="o" d="M11.52,7.9,8.71,6.27c0-.12,0-.24,0-.35a2.51,2.51,0,0,0-1-2.36L10.5,5.2a2.55,2.55,0,0,1,1,2.36c0,.11,0,.23,0,.34Z" transform="translate(-0.53 -3)"/></g></g><g class="a"><g class="a"><path class="n" d="M.53,8.42a4.31,4.31,0,0,0,2.1,3.83,2.5,2.5,0,0,1-1-2.36A1.79,1.79,0,0,1,.53,8.42Z" transform="translate(-0.53 -3)"/><path class="n" d="M1.59,9.89A1.79,1.79,0,0,1,.53,8.42c0,.09,0,.21,0,.31s0,.29,0,.41l.05.31c0,.15.08.34.13.48l.11.29c.07.16.17.37.25.53l.17.27a3.63,3.63,0,0,0,.43.52l.23.23a4.22,4.22,0,0,0,.68.48,2.5,2.5,0,0,1-1-2.36Z" transform="translate(-0.53 -3)"/><path class="o" d="M1.59,9.89A1.79,1.79,0,0,1,.53,8.42c0,.09,0,.21,0,.31s0,.29,0,.41l.05.31c0,.15.08.34.13.48l.11.29c.07.16.17.37.25.53l.17.27a3.63,3.63,0,0,0,.43.52l.23.23a4.22,4.22,0,0,0,.68.48,2.5,2.5,0,0,1-1-2.36Z" transform="translate(-0.53 -3)"/></g></g><g class="a"><g class="a"><path class="n" d="M7.68,3.56C4.21,1.72.6,4.84.53,8.42A1.79,1.79,0,0,0,1.59,9.89,7.81,7.81,0,0,1,5.2,3.77a2.48,2.48,0,0,1,2.48-.21Z" transform="translate(-0.53 -3)"/><path class="n" d="M1.59,9.89a6.75,6.75,0,0,1,.61-2.6V6.94A2.15,2.15,0,0,1,3.58,5.12,6.37,6.37,0,0,1,5.2,3.77a2.48,2.48,0,0,1,2.48-.21l-.29-.15-.46-.19-.31-.09L6.13,3,5.82,3H5.28L5,3.05c-.18,0-.42.08-.6.13l-.29.1a4.46,4.46,0,0,0-.68.31l-.26.15L2.84,4l-.23.18-.24.21-.2.2L2,4.76,1.8,5l-.17.22-.15.22-.14.23-.13.23-.13.24L1,6.36l-.1.26-.09.26L.7,7.16l-.06.28c0,.09,0,.22-.06.31l0,.3c0,.11,0,.26,0,.37A1.79,1.79,0,0,0,1.59,9.89Z" transform="translate(-0.53 -3)"/><path class="o" d="M1.59,9.89c0-.11,0-.23,0-.34l-.16-.16c-1.69-1.89.66-6,3.35-5.91a2.56,2.56,0,0,1,.68.15,2.37,2.37,0,0,1,2.21-.07l-.29-.15-.46-.19-.31-.09L6.13,3,5.82,3H5.28L5,3.05c-.18,0-.42.08-.6.13l-.29.1a4.46,4.46,0,0,0-.68.31l-.26.15L2.84,4l-.23.18-.24.21-.2.2L2,4.76,1.8,5l-.17.22-.15.22-.14.23-.13.23-.13.24L1,6.36l-.1.26-.09.26L.7,7.16l-.06.28c0,.09,0,.22-.06.31l0,.3c0,.11,0,.26,0,.37A1.79,1.79,0,0,0,1.59,9.89Z" transform="translate(-0.53 -3)"/></g></g><g class="a"><path class="o" d="M4.41,11.53,1.59,9.89a2.5,2.5,0,0,0,1,2.36l2.82,1.64a2.51,2.51,0,0,1-1-2.36Z" transform="translate(-0.53 -3)"/></g><g class="a"><g class="a"><path class="o" d="M10.5,5.2,7.68,3.56a2.37,2.37,0,0,0-2.21.07L8.29,5.27A2.35,2.35,0,0,1,10.5,5.2Z" transform="translate(-0.53 -3)"/><path class="n" d="M8.29,5.27,5.47,3.63l-.27.14A6.37,6.37,0,0,0,3.58,5.12L6.4,6.76A6.17,6.17,0,0,1,8,5.41l.27-.14Z" transform="translate(-0.53 -3)"/><path class="q" d="M6.4,6.76,3.58,5.12A8.7,8.7,0,0,0,2.2,7.29L5,8.93A8.7,8.7,0,0,1,6.4,6.76Z" transform="translate(-0.53 -3)"/><path class="n" d="M5,8.93,2.2,7.29a7.3,7.3,0,0,0-.6,2.26l2.82,1.63A7,7,0,0,1,5,8.93Z" transform="translate(-0.53 -3)"/><path class="o" d="M4.42,11.18,1.6,9.55c0,.11,0,.23,0,.34l2.82,1.64c0-.11,0-.23,0-.35Z" transform="translate(-0.53 -3)"/></g></g><path class="m" d="M4.41,11.53c0,2.29,1.54,3.25,3.51,2.15a7.85,7.85,0,0,0,3.62-6.12C11.57,5.27,10,4.31,8,5.41A7.81,7.81,0,0,0,4.41,11.53Z" transform="translate(-0.53 -3)"/></g><g class="a"><g class="a"><g class="a"><path class="r" d="M4.41,11.53,8,9.54l-3.56,2A7.81,7.81,0,0,1,8,5.42c2-1.1,3.54-.14,3.51,2.14a7.86,7.86,0,0,1-3.61,6.12c-2,1.1-3.55.13-3.52-2.15Z" transform="translate(-0.53 -3)"/></g></g><g class="a"><g class="a"><path class="o" d="M14.36,27.13l-.76-.45c1.37.79,3.2.78,5.25-.18l.77.44a5.65,5.65,0,0,1-5.26.19Z" transform="translate(-0.53 -3)"/><path class="n" d="M19.62,26.94l-.77-.44.64-.33a15,15,0,0,0,3.88-3.24l.77.44a14.89,14.89,0,0,1-3.89,3.24l-.63.33Z" transform="translate(-0.53 -3)"/><path class="p" d="M24.14,23.37l-.77-.44a20.82,20.82,0,0,0,3.26-5.12l.76.45a20.44,20.44,0,0,1-3.25,5.11Z" transform="translate(-0.53 -3)"/><path class="n" d="M27.39,18.26l-.76-.45a16.81,16.81,0,0,0,1.44-5.41l.77.44a16.82,16.82,0,0,1-1.45,5.42Z" transform="translate(-0.53 -3)"/><path class="o" d="M28.84,12.84l-.77-.44c0-.28,0-.56.05-.84,0-2.75-.92-4.71-2.47-5.62l.76.45C28,7.3,28.91,9.25,28.88,12c0,.28,0,.55,0,.83Z" transform="translate(-0.53 -3)"/></g></g><g class="a"><g class="a"><path class="r" d="M12.05,25.15,4.81,13.25c.57.93,1.68,1.17,3,.5L19.16,26.34c-3.11,1.6-5.76,1-7.11-1.19Z" transform="translate(-0.53 -3)"/><path class="s" d="M19.16,26.34,7.79,13.75l.14-.07a6.15,6.15,0,0,0,1.33-1l13.42,11a14.45,14.45,0,0,1-3.19,2.49l-.33.17Z" transform="translate(-0.53 -3)"/><path class="s" d="M22.68,23.68l-13.42-11q.32-.33.6-.69L24.11,22a17.64,17.64,0,0,1-1.43,1.65Z" transform="translate(-0.53 -3)"/><path class="s" d="M24.11,22,9.86,12a8.77,8.77,0,0,0,.89-1.43l15.49,8.12A21.22,21.22,0,0,1,24.11,22Z" transform="translate(-0.53 -3)"/><path class="s" d="M26.24,18.64,10.75,10.52a7.38,7.38,0,0,0,.36-.81l16,7a20.65,20.65,0,0,1-.84,1.94Z" transform="translate(-0.53 -3)"/><path class="s" d="M27.08,16.7l-16-7a7.21,7.21,0,0,0,.4-1.65L28,12.76a16.4,16.4,0,0,1-1,3.94Z" transform="translate(-0.53 -3)"/><path class="r" d="M28,12.76,11.51,8.06a4.19,4.19,0,0,0,0-.5C11.56,6,10.78,5,9.63,5l13.92.4c2.75.08,4.61,2.36,4.57,6.2,0,.4,0,.8-.08,1.2Z" transform="translate(-0.53 -3)"/></g></g><g class="a"><path class="o" d="M11.1,21.05l8.5-4.75-8.5,4.75c.06-5.45,3.93-12,8.63-14.61s8.45-.32,8.39,5.12-3.94,12-8.63,14.61-8.46.32-8.39-5.12Z" transform="translate(-0.53 -3)"/></g><g class="a"><path class="o" d="M11.87,21.49l-.77-.44c0,2.77.92,4.73,2.5,5.63l.76.45c-1.57-.91-2.53-2.86-2.49-5.64Z" transform="translate(-0.53 -3)"/></g><g class="a"><g class="a"><path class="o" d="M26.41,6.39l-.76-.45a5.6,5.6,0,0,0-5.28.17l.77.45c2.06-1,3.9-1,5.27-.17Z" transform="translate(-0.53 -3)"/><path class="n" d="M21.14,6.56l-.77-.45c-.21.1-.43.21-.64.33a15,15,0,0,0-3.84,3.19l.76.45a15,15,0,0,1,3.84-3.19l.65-.33Z" transform="translate(-0.53 -3)"/><path class="q" d="M16.65,10.08l-.76-.45a20.58,20.58,0,0,0-3.34,5.24l.77.44a21,21,0,0,1,3.33-5.23Z" transform="translate(-0.53 -3)"/><path class="n" d="M13.32,15.31l-.77-.44a16.92,16.92,0,0,0-1.41,5.35l.77.45a16.72,16.72,0,0,1,1.41-5.36Z" transform="translate(-0.53 -3)"/><path class="o" d="M11.91,20.67l-.77-.45a7.69,7.69,0,0,0,0,.83l.77.44a7.5,7.5,0,0,1,0-.82Z" transform="translate(-0.53 -3)"/></g></g><g class="a"><g class="a"><path class="o" d="M15.13,27.57l-.78-.45a5.59,5.59,0,0,0,5.26-.18l.78.45c-2.05,1-3.89,1-5.26.18Z" transform="translate(-0.53 -3)"/><path class="n" d="M20.39,27.39l-.78-.45c.21-.1.43-.21.64-.33a15,15,0,0,0,3.87-3.21l.78.45A14.84,14.84,0,0,1,21,27.06c-.21.12-.43.23-.64.33Z" transform="translate(-0.53 -3)"/><path class="p" d="M24.9,23.85l-.78-.45a20.62,20.62,0,0,0,3.29-5.18l.78.46a20.75,20.75,0,0,1-3.29,5.17Z" transform="translate(-0.53 -3)"/><path class="n" d="M28.19,18.68l-.78-.46a16.88,16.88,0,0,0,1.43-5.38l.78.45a16.93,16.93,0,0,1-1.43,5.39Z" transform="translate(-0.53 -3)"/><path class="o" d="M29.62,13.29l-.78-.45c0-.28,0-.56,0-.83,0-2.77-.92-4.72-2.48-5.63l.78.46c1.56.9,2.51,2.86,2.48,5.62,0,.28,0,.56,0,.83Z" transform="translate(-0.53 -3)"/></g></g><g class="a"><path class="o" d="M12.65,21.94l-.78-.45c0,2.77.92,4.72,2.48,5.63l.78.45c-1.56-.91-2.52-2.86-2.48-5.63Z" transform="translate(-0.53 -3)"/></g><g class="a"><g class="a"><path class="r" d="M23.55,5.36,9.63,5A3.1,3.1,0,0,0,8,5.42l-.27.15L19.1,6.82c.21-.13.41-.26.63-.38a7.61,7.61,0,0,1,3.82-1.08Z" transform="translate(-0.53 -3)"/><path class="s" d="M19.1,6.82,7.76,5.57a8.06,8.06,0,0,0-3.24,5l6.83,8.13A19.22,19.22,0,0,1,19.1,6.82Z" transform="translate(-0.53 -3)"/><path class="r" d="M11.35,18.67,4.52,10.54a5.66,5.66,0,0,0-.11,1l6.69,9.52a14,14,0,0,1,.25-2.38Z" transform="translate(-0.53 -3)"/></g></g><g class="a"><path class="t" d="M21.15,17.2l-8.5,4.74c-.07,5.45,3.69,7.74,8.38,5.12s8.56-9.15,8.63-14.6S26,4.73,21.27,7.35s-8.56,9.15-8.62,14.59l8.5-4.74Z" transform="translate(-0.53 -3)"/></g><g class="a"><g class="a"><path class="o" d="M27.18,6.84l-.78-.46a5.62,5.62,0,0,0-5.26.18l.78.46c2-1,3.89-1,5.26-.18Z" transform="translate(-0.53 -3)"/><path class="n" d="M21.92,7l-.78-.46c-.22.1-.43.21-.65.33a15.21,15.21,0,0,0-3.86,3.21l.78.46a14.8,14.8,0,0,1,3.86-3.21c.22-.12.43-.23.65-.33Z" transform="translate(-0.53 -3)"/><path class="q" d="M17.41,10.56l-.78-.46a20.7,20.7,0,0,0-3.29,5.18l.78.45a20.47,20.47,0,0,1,3.29-5.17Z" transform="translate(-0.53 -3)"/><path class="n" d="M14.12,15.73l-.78-.45a16.88,16.88,0,0,0-1.43,5.38l.77.45a17.17,17.17,0,0,1,1.44-5.38Z" transform="translate(-0.53 -3)"/><path class="o" d="M12.68,21.11l-.77-.45a7.81,7.81,0,0,0,0,.83l.78.45c0-.27,0-.55,0-.83Z" transform="translate(-0.53 -3)"/></g></g></g><g class="a"><g class="a"><g class="a"><path class="s" d="M21.52,15.13l-.23,0-.17,0a.76.76,0,0,0-.16.06l-.06,0-.17.08-4.89-2.8c.11-.17.22-.33.34-.49Z" transform="translate(-0.53 -3)"/><path class="r" d="M16.24,12l5.6,3.22-.09,0-.08,0-.15,0-5.34-3.06Z" transform="translate(-0.53 -3)"/></g></g><g class="a"><g class="a"><path class="r" d="M19.55,19.25,14,16c.24-.58.52-1.16.82-1.72L19.38,17s0,0,0,0a1.19,1.19,0,0,0-.08.2c0,.07-.05.14-.07.2a1.8,1.8,0,0,0,0,.19,3.21,3.21,0,0,0-.07.43,1.09,1.09,0,0,0,0,.18v0a1.41,1.41,0,0,0,0,.21.89.89,0,0,1,0,.15s0,0,0,0l0,.13.06.14a1,1,0,0,0,.15.24A.84.84,0,0,0,19.55,19.25Z" transform="translate(-0.53 -3)"/><path class="s" d="M20.73,15.36a2.62,2.62,0,0,0-.34.24l-.14.12,0,0-.13.13a3,3,0,0,0-.28.34,1.27,1.27,0,0,0-.13.19l-.11.16-.15.28a1.17,1.17,0,0,1-.05.11l-4.6-2.63a18.24,18.24,0,0,1,1.06-1.76Z" transform="translate(-0.53 -3)"/></g></g><path class="u" d="M20.73,15.36c.91-.52,1.65-.1,1.65.94a3.61,3.61,0,0,1-1.64,2.85c-.91.52-1.65.1-1.65-.95A3.63,3.63,0,0,1,20.73,15.36Z" transform="translate(-0.53 -3)"/></g></svg>