<svg xmlns="http://www.w3.org/2000/svg" viewBox="0 0 111.5 146.42"><defs><style>.a{fill:#d7e7f7;}.b{fill:#fff;}.c{fill:#22292b;}.d{isolation:isolate;}.e{fill:#9cb5cc;}.f{fill:#181d1f;}.g{fill:#1c2124;}.h{fill:#83cff2;}.i{fill:#022540;}.j{fill:#e9c2b0;}.k{fill:#f02222;}.l{fill:#f04646;}.m{fill:#393b42;}.n{fill:#fdfffe;}.o{fill:#1a4b6c;}.p{fill:#ff5542;}.q{fill:#728d96;}.r{fill:#1c2326;}.s{fill:#174361;}</style></defs><title>screen</title><path class="a" d="M134.59,112.18a1.59,1.59,0,0,1-1,1.34l-1.66,1v-2.13l-3.33-1.94-3.27,1.89,1.87,1.1,1.41-.82,1.45.86-1.4.81-3.33-2v.12l-1.59-.93a5.45,5.45,0,0,0-.58-1.35l1.07-.61v-2.18l-3.33-1.94-.75.43V105L116.85,103l-.75.43v-.86l-3.33-2-3.27,1.89v.53l-.45-.26-3.27,1.89v.53l-.46-.26-3.27,1.9v.52l-.47-.26L98.33,109v.53l-.45-.27-3.28,1.9v.53l-.46-.26-3.27,1.9v.52l-.45-.26-3.27,1.89V116l-.46-.27-3.27,1.91v.52l-.46-.26-3.27,1.9v.52l-.45-.26L76,122v.53l-.46-.27-3.27,1.91v.52l-.45-.27-3.27,1.91v.52l-.45-.26-3.27,1.9h0V129l-.46-.26-3.26,1.89v2l-1.68-1-3.28,1.91v2l-1.56-.91a1.6,1.6,0,0,1-.93-1.31v2.17a1.58,1.58,0,0,0,.93,1.31l19,11.12a5.1,5.1,0,0,0,4.57,0l55.46-32.18a1.64,1.64,0,0,0,.95-1.34C134.6,113.63,134.6,112.91,134.59,112.18Z" transform="translate(-23.1 -2)"/><path class="b" d="M133.66,110.86l-19-11.1a5,5,0,0,0-4.57,0L54.61,131.93c-1.26.74-1.27,1.93,0,2.66l19,11.11a5,5,0,0,0,4.57,0l55.46-32.18A1.41,1.41,0,0,0,133.66,110.86Z" transform="translate(-23.1 -2)"/><polygon class="c" points="89.67 98.66 93.01 100.61 89.74 102.5 86.4 100.55 89.67 98.66"/><polygon class="c" points="85.95 100.82 89.28 102.76 86.01 104.66 82.68 102.71 85.95 100.82"/><polygon class="c" points="82.22 102.97 85.56 104.92 82.29 106.82 78.96 104.88 82.22 102.97"/><polygon class="c" points="90.03 103.2 93.36 105.14 90.09 107.04 86.76 105.09 90.03 103.2"/><polygon class="c" points="97.84 103.42 101.16 105.36 97.9 107.27 94.56 105.32 97.84 103.42"/><polygon class="c" points="78.5 105.14 81.84 107.08 78.56 108.98 75.23 107.03 78.5 105.14"/><polygon class="c" points="94.1 105.58 97.44 107.53 94.17 109.42 90.84 107.47 94.1 105.58"/><polygon class="c" points="74.78 107.29 78.11 109.24 74.84 111.14 71.5 109.19 74.78 107.29"/><polygon class="c" points="90.39 107.74 93.71 109.68 90.45 111.58 87.11 109.64 90.39 107.74"/><polygon class="c" points="71.06 109.46 74.39 111.4 71.11 113.31 67.78 111.36 71.06 109.46"/><polygon class="c" points="81 108.44 84.33 110.38 75.19 115.68 71.87 113.74 81 108.44"/><polygon class="c" points="63.6 113.77 66.94 115.72 63.67 117.62 60.34 115.68 63.6 113.77"/><polygon class="c" points="71.41 114 74.74 115.94 71.47 117.84 68.15 115.89 71.41 114"/><polygon class="c" points="85.37 111 89.22 113.25 91.44 114.54 92.56 115.19 87.04 118.39 83.71 116.45 85.4 115.46 81.55 113.21 85.37 111"/><polygon class="c" points="59.89 115.94 63.22 117.88 59.95 119.78 56.62 117.83 59.89 115.94"/><polygon class="c" points="67.69 116.16 71.02 118.1 67.75 120.01 64.42 118.05 67.69 116.16"/><polygon class="c" points="72.98 117.84 76.31 119.78 73.04 121.68 69.71 119.73 72.98 117.84"/><polygon class="c" points="56.16 118.1 59.49 120.05 56.22 121.94 52.89 119.99 56.16 118.1"/><polygon class="c" points="63.96 118.32 67.3 120.26 64.02 122.16 60.7 120.22 63.96 118.32"/><polygon class="c" points="69.3 119.97 72.63 121.91 69.36 123.81 66.03 121.87 69.3 119.97"/><polygon class="c" points="52.44 120.25 55.77 122.2 52.5 124.11 49.17 122.16 52.44 120.25"/><polygon class="c" points="60.24 120.48 63.57 122.42 60.3 124.32 56.97 122.37 60.24 120.48"/><polygon class="c" points="85.49 120.09 88.82 122.04 82.31 125.81 78.99 123.86 85.49 120.09"/><polygon class="c" points="65.62 122.11 68.95 124.05 65.68 125.95 62.35 124 65.62 122.11"/><polygon class="c" points="48.72 122.41 52.05 124.36 48.77 126.26 45.44 124.32 48.72 122.41"/><polygon class="c" points="56.52 122.64 59.85 124.58 56.57 126.48 53.24 124.54 56.52 122.64"/><polygon class="c" points="61.94 124.24 65.27 126.19 62 128.08 58.67 126.14 61.94 124.24"/><polygon class="c" points="44.99 124.58 48.33 126.53 45.05 128.42 41.72 126.47 44.99 124.58"/><polygon class="c" points="52.79 124.8 56.12 126.74 52.85 128.64 49.52 126.7 52.79 124.8"/><polygon class="c" points="58.26 126.38 61.59 128.31 58.32 130.22 54.99 128.28 58.26 126.38"/><polygon class="c" points="41.27 126.74 44.6 128.68 41.33 130.58 38 128.63 41.27 126.74"/><polygon class="c" points="49.07 126.96 52.4 128.9 49.13 130.8 45.8 128.86 49.07 126.96"/><polygon class="c" points="54.58 128.51 57.91 130.45 54.64 132.35 51.31 130.41 54.58 128.51"/><polygon class="c" points="36.32 129.6 39.66 131.55 36.38 133.45 33.05 131.51 36.32 129.6"/><polygon class="c" points="50.9 130.65 54.23 132.59 50.95 134.49 47.63 132.54 50.9 130.65"/><polygon class="c" points="78.58 124.11 81.91 126.05 65.92 135.33 62.59 133.38 78.58 124.11"/><polygon class="c" points="45.19 129.21 48.52 131.16 40.46 135.83 37.13 133.89 45.19 129.21"/><polygon class="c" points="47.2 132.79 50.53 134.73 44.53 138.21 41.2 136.27 47.2 132.79"/><polygon class="c" points="62.08 133.68 65.42 135.62 59.89 138.82 56.56 136.88 62.08 133.68"/><polygon class="c" points="55.88 137.27 59.21 139.22 52.71 142.99 49.38 141.04 55.88 137.27"/><polygon class="c" points="93.75 101.04 97.08 102.99 93.81 104.89 90.48 102.93 93.75 101.04"/><polygon class="c" points="86.31 105.36 89.63 107.31 86.36 109.2 83.03 107.26 86.31 105.36"/><polygon class="c" points="105.54 108.42 108.88 110.36 105.6 112.26 102.27 110.31 105.54 108.42"/><polygon class="c" points="101.84 110.57 102.28 110.83 105.17 112.51 101.89 114.41 98.56 112.46 98.9 112.27 101.84 110.57"/><polygon class="c" points="98.23 108.42 98.68 108.68 101.57 110.36 98.3 112.26 94.97 110.31 95.3 110.12 98.23 108.42"/><polygon class="c" points="67.33 111.62 70.66 113.56 67.39 115.46 64.06 113.51 67.33 111.62"/><polygon class="c" points="98.24 112.65 101.57 114.59 98.3 116.5 94.97 114.55 98.24 112.65"/><polygon class="c" points="80.35 113.57 83.67 115.51 80.4 117.41 77.07 115.47 80.35 113.57"/><polygon class="c" points="76.66 115.7 80 117.64 76.72 119.54 73.39 117.6 76.66 115.7"/><polygon class="c" points="92.92 115.79 96.24 117.74 89.49 121.65 86.16 119.7 92.92 115.79"/><polygon class="c" points="57.06 131.81 60.4 133.76 57.12 135.66 53.79 133.72 57.06 131.81 57.06 131.81"/><polygon class="c" points="57.43 131.6 60.7 129.7 64.03 131.65 60.77 133.55 57.43 131.6 57.43 131.6"/><polygon class="c" points="61.1 129.47 64.38 127.57 67.72 129.51 64.44 131.42 61.1 129.47 61.1 129.47"/><polygon class="c" points="64.74 127.36 68.02 125.46 71.35 127.41 68.08 129.3 64.74 127.36 64.74 127.36"/><polygon class="c" points="68.55 125.15 71.82 123.25 75.15 125.2 71.88 127.1 68.55 125.15 68.55 125.15"/><polygon class="c" points="72.19 123.03 75.46 121.14 78.8 123.09 75.53 124.99 72.19 123.03 72.19 123.03"/><polygon class="c" points="75.87 120.91 79.14 119.01 82.48 120.95 79.2 122.85 75.87 120.91 75.87 120.91"/><polygon class="c" points="79.51 118.8 82.78 116.9 86.11 118.84 82.84 120.74 79.51 118.8 79.51 118.8"/><polygon class="c" points="45.28 138.65 53.34 133.97 56.67 135.92 48.61 140.6 45.28 138.65 45.28 138.65"/><g class="d"><polygon class="e" points="14.16 107.5 14.18 111.99 34.42 123.81 34.4 119.32 14.16 107.5"/><polygon class="a" points="34.4 119.32 34.42 123.81 77.85 98.61 77.84 94.13 34.4 119.32"/><polygon class="b" points="14.16 107.5 34.4 119.32 77.84 94.13 57.6 82.31 14.16 107.5"/></g><polygon class="f" points="59.36 73.46 64.54 76.48 31.37 95.72 31.03 102.99 60.07 86.14 65.24 89.16 65.49 93.53 30.52 113.82 25.35 110.8 25.57 106.15 26.21 92.7 59.36 73.46"/><polygon class="g" points="65.24 89.16 65.24 89.16 64.53 76.48 31.37 95.72 30.73 109.17 30.52 113.82 65.48 93.53 65.24 89.16"/><path class="f" d="M48,97.27,28.76,108.33v2.12a2.67,2.67,0,0,0,1.12,2.46l-5.52-3.22a2.68,2.68,0,0,1-1.11-2.46v-4.84l0-2.85L23.1,54a8.42,8.42,0,0,1,3.8-6.61L104.16,2.52a2.69,2.69,0,0,1,2.71-.26l5.52,3.22a2.67,2.67,0,0,0-2.71.26L106,7.87l3.77,2.21a1.61,1.61,0,0,1,.67,1.47l.14,45.74,3.08,1.79L83.4,76.75Z" transform="translate(-23.1 -2)"/><path class="f" d="M110.58,57.29l-.14-45.74a1.61,1.61,0,0,0-.67-1.47L106,7.87l3.68-2.13a2.67,2.67,0,0,1,2.71-.26l-2.7-1.57a3.14,3.14,0,0,0-1.83.49L30.59,49.22a8.44,8.44,0,0,0-3.8,6.62l.14,45.58v7.69a2.7,2.7,0,0,0,1.12,2.46c.39.22.78.46,1.18.68h0a3.21,3.21,0,0,1-.48-1.81v-2.12L48,97.27,83.4,76.75l30.26-17.67Z" transform="translate(-23.1 -2)"/><path class="c" d="M109.67,5.74c2.11-1.21,3.82-.22,3.83,2.2l.14,45.57v5.57L28.76,108.33v-5.56l-.13-45.59a8.42,8.42,0,0,1,3.8-6.61Zm-77.85,98.5,78.76-45.69-.15-47c0-1.45-1-2-2.28-1.31L34,53.27a5,5,0,0,0-2.27,4l.14,47Z" transform="translate(-23.1 -2)"/><path class="c" d="M28.76,108.33v2.12c0,2.42,1.73,3.41,3.83,2.2l77.27-44.83a8.47,8.47,0,0,0,3.8-6.61V59.08Z" transform="translate(-23.1 -2)"/><path class="h" d="M110.56,58a7.41,7.41,0,0,1-3.34,5.84l-72,41.8c-1.84,1.07-3.35.19-3.38-2l-.11-46.38a5.06,5.06,0,0,1,2.26-4l4.84-2.81,2.88-1.67L45,46.88l9.57-5.55,3.31-1.91L88.4,21.7l8.91-5.17,3.52-2.05,7.32-4.24c1.26-.74,2.29-.14,2.29,1.32Z" transform="translate(-23.1 -2)"/><polygon class="b" points="10.9 53.7 10.9 101.63 48.62 79.86 48.62 31.92 10.9 53.7"/><polygon class="b" points="85.32 10.74 48.62 31.92 48.62 79.86 85.32 58.67 85.32 10.74"/><polygon class="i" points="85.32 10.74 48.62 31.92 10.9 53.7 10.9 58.95 48.62 37.18 85.32 15.99 85.32 10.74"/><polygon class="i" points="81.59 31.01 52.34 47.9 52.34 42.94 81.59 26.05 81.59 31.01"/><polygon class="i" points="81.59 39.24 52.34 56.13 52.34 51.18 81.59 34.29 81.59 39.24"/><polygon class="i" points="81.59 47.47 52.34 64.36 52.34 59.41 81.59 42.52 81.59 47.47"/><polygon class="i" points="81.59 55.7 52.34 72.59 52.34 67.64 81.59 50.75 81.59 55.7"/><path class="a" d="M70,61.28c0,5.35-1.88,11.27-4.91,16.53a39.35,39.35,0,0,1-5.48,7.39l-.05,0c-.26.28-.53.56-.8.82a28.7,28.7,0,0,1-2.36,2.09,25.07,25.07,0,0,1-3,2.06l-.2.12s0,0-.06,0l-.11.07-.45.24a18.22,18.22,0,0,1-2.68,1.19,13.4,13.4,0,0,1-3,.69l-.16,0a9,9,0,0,1-5.39-1.06c-3-1.76-4.91-5.51-4.91-10.86s1.88-11.27,4.91-16.53A34.36,34.36,0,0,1,53.18,51.6C62.44,46.26,70,50.59,70,61.28Z" transform="translate(-23.1 -2)"/><polygon class="j" points="32.03 64.92 27.83 67.35 27.83 63.08 32.03 60.65 32.03 64.92"/><path class="a" d="M55.13,65.44v9.37L54,77c-.09.2-.19.38-.28.55l-2.8,1.61V67.87Z" transform="translate(-23.1 -2)"/><path class="k" d="M53.83,66.64l-.82,0v1.68a.92.92,0,0,0,.14-.14l.51-.81.17-.26C53.93,67,53.93,66.68,53.83,66.64Z" transform="translate(-23.1 -2)"/><path class="l" d="M52.19,67.58c-.1.16-.1.48,0,.52l.17.07.51.2a.17.17,0,0,0,.14,0V66.68Z" transform="translate(-23.1 -2)"/><path class="j" d="M56.51,58.37c0,2.73-1.56,5.85-3.49,7s-3.48-.2-3.48-2.93.2-5.92,3.48-7.82C56.51,52.57,56.51,55.64,56.51,58.37Z" transform="translate(-23.1 -2)"/><path class="j" d="M50,62.22a1.5,1.5,0,0,1-.3,1.36c-.28.25-.6,0-.72-.51a1.5,1.5,0,0,1,.3-1.36C49.55,61.46,49.88,61.7,50,62.22Z" transform="translate(-23.1 -2)"/><path class="j" d="M56.06,58.71c-.12.66,0,1.12.3,1s.61-.69.72-1.34,0-1.12-.3-1S56.18,58.06,56.06,58.71Z" transform="translate(-23.1 -2)"/><path class="m" d="M56.74,53.72c-.46-1.35-2-1-3.73,0A7,7,0,0,0,49.27,58a13.08,13.08,0,0,0,.14,3.57c.09.32.39,1.88.5.56A22.58,22.58,0,0,1,50,58.36c.46-1.09,1.22-1.81,1.81-1.62a4.57,4.57,0,0,0,2.4-1.38c.72-1,1.36-1,1.82-.4a21.13,21.13,0,0,1,.08,3.64c.11,1.2.41-.72.5-1.14A14.52,14.52,0,0,0,56.74,53.72Z" transform="translate(-23.1 -2)"/><polygon class="n" points="27.98 67.04 26.09 67.32 27.83 64.25 29.92 64.68 27.98 67.04"/><polygon class="n" points="31.85 64.81 33.73 62.91 32 61.84 29.91 64.68 31.85 64.81"/><path class="o" d="M63.14,68.73c-.25-1-1.16-5.85-1.49-5.89l-2.38.68h0c-.87.25-2.07.59-3.08.9L53,78.77l-2.81-10.9c-1,.86-2.22,1.91-3.1,2.68h0l-2.37,2.06c-.33.41-1.25,6.34-1.48,7.6-.46,2.36-2,9.16-1.75,9.74.12.29,4.92-7.27,5.07-8.54l.17-3.55.18,1.32S47,84.7,47,86.5c0,.48,0,3.45-.11,6a13.4,13.4,0,0,0,3-.69,18.22,18.22,0,0,0,2.68-1.19l.45-.24.11-.07s0,0,.06,0l.2-.12a25.07,25.07,0,0,0,3-2.06,28.7,28.7,0,0,0,2.36-2.09c.27-.26.54-.54.8-.82,0-2.53-.09-5.45-.1-5.91-.06-1.74.05-7.39.05-7.39v0l.18,8.22c.16,1.1,2.61.38,3.93-2.51C64,76.74,63.58,70.57,63.14,68.73Z" transform="translate(-23.1 -2)"/><path class="p" d="M53.89,73.81l-.23-6.4-.51.81a.92.92,0,0,1-.14.14h0a.17.17,0,0,1-.14,0l-.51-.2L52,77.69,53,79h0c0-.06.31-.59.71-1.38.09-.17.19-.35.28-.55Z" transform="translate(-23.1 -2)"/><path class="i" d="M48,74.17c-.19-.42,1.3-2.49,1.3-2.49s-1.05-.35-1.07-.67c-.1-1.16,2.27-4,2.27-4L53,79S48.65,75.67,48,74.17Z" transform="translate(-23.1 -2)"/><path class="i" d="M58,68.36a60.35,60.35,0,0,1-2.91,6.45L54,77c-.09.2-.19.38-.28.55-.4.79-.67,1.32-.71,1.38h0l.18-1.08.7-4.08,1.24-7.27.41-2.43s2.37.08,2.27,1.35a10.31,10.31,0,0,1-1.07,1.91S58.23,67.72,58,68.36Z" transform="translate(-23.1 -2)"/><polygon class="q" points="29.34 71.77 28.03 72.31 28.64 65.81 30.28 65.14 29.34 71.77"/><path class="r" d="M53.91,67.36c.11-1-.42-1.48-1.2-1.17A3.1,3.1,0,0,0,51.1,68.5c-.11,1,.42,1.49,1.2,1.17A3.1,3.1,0,0,0,53.91,67.36Z" transform="translate(-23.1 -2)"/><path class="j" d="M49.26,74l1.23-2a1.77,1.77,0,0,1,.46-.48c.39-.23,1.09-.6,1.18-.63.74-.16.86-.3,1.27.14.17.18.08.75-.2.82s-.21.07-.15.4,0,.28-.17.59,0,.48-.3.87-.2.08-.27.51c0,.21-.25.59-.44.59-.71,0-1.23.74-1.68,1.47a14.88,14.88,0,0,1-1.29,2.24l-1.5-1S49.1,74.21,49.26,74Z" transform="translate(-23.1 -2)"/><path class="s" d="M50.64,76.39l-2.59-.65s-5.59,9.64-6.57,12.77c-.88,2.8,1.22,3.06,2,2.31A14.17,14.17,0,0,0,46.65,86C48.46,82.05,50.64,76.39,50.64,76.39Z" transform="translate(-23.1 -2)"/><path class="j" d="M66.73,58.16s0,.15-.11.38l-.89,3.14a2,2,0,0,0-.06.22c-.06.12-.12.16-.16.15s-.19-.33-.21-.45a3.52,3.52,0,0,1,0-.78.56.56,0,0,0-.1-.43.38.38,0,0,0-.38-.16.25.25,0,0,0-.17.23c0,2.08-.44,2.93-.2,4.5a2.74,2.74,0,0,1-.11.93l.4-.08c.55-.11,1.09-.2,1.64-.29a.76.76,0,0,0,0-.11,2.49,2.49,0,0,1,.41-.6,21.09,21.09,0,0,0,1-1.91,23.71,23.71,0,0,0,1-2.44c.13-.4.27-.82.38-1.23a1.68,1.68,0,0,0,.13-.66c0-.08-.15-.08-.26.13-.28.57-.44,1-.67,1.63,0,.06-.11.32-.15.17a.89.89,0,0,1,.06-.2c.14-.44.69-1.9.74-2.18s0-.31-.1-.32-.24.17-.35.37a5,5,0,0,0-.26.61c-.27.65-.69,2.19-1,2.18a28.1,28.1,0,0,1,1-3.11c.15-.35.27-.88-.12-.69s-.4.61-.53,1c0,0-.49,1.43-.68,1.9a3.42,3.42,0,0,1-.37.85c-.18.1-.07-.2,0-.31.15-.7.29-1.25.4-1.66s.16-.65.19-.83,0-.37-.19-.32A.58.58,0,0,0,66.73,58.16Z" transform="translate(-23.1 -2)"/><path class="s" d="M64.22,65.13l2.67,0s-2.25,10.64-3.68,13.46a4.87,4.87,0,0,1-1.91,2.24c-.77.41-1.41.2-1.65-.45-.45-1.27.29-3.3.79-5C61.48,71.8,64.22,65.13,64.22,65.13Z" transform="translate(-23.1 -2)"/><path class="i" d="M54,81.64c0-.67-.46-.93-1-.6a2.31,2.31,0,0,0-1,1.8c0,.66.47.93,1,.6A2.28,2.28,0,0,0,54,81.64Z" transform="translate(-23.1 -2)"/><path class="i" d="M54,86.37c0-.67-.46-.94-1-.6a2.31,2.31,0,0,0-1,1.8c0,.66.47.93,1,.59A2.27,2.27,0,0,0,54,86.37Z" transform="translate(-23.1 -2)"/></svg>