<svg xmlns="http://www.w3.org/2000/svg" viewBox="0 0 87.73 76.81"><defs><style>.a{fill:#d1dce6;}.b{fill:#83cff2;}.c{fill:#9cb5cc;}.d{fill:#f8f9fc;}.e{fill:#ff5542;}.f{isolation:isolate;}.g{fill:#bc3e30;}.h{fill:#973227;}.i{fill:#d62222;}.j{fill:#6c1a0f;}.k{fill:#c2c3c5;}.l{fill:#dbdcdf;}.m{fill:#fff;}.n{fill:#edc7af;}.o{fill:#b9cc12;}.p{fill:#a1b400;}.q{fill:#5d750e;}.r{fill:#fff9f5;}.s{fill:#7295aa;}.t{fill:#82940d;}.u{fill:#61351c;}.v{fill:#bcbcbe;}.w{fill:#022540;}.x{fill:#d7e7f7;}.y{fill:#c8d5e3;}.z{fill:#f4f5f2;}.aa{fill:#e9c2b0;}.ab{fill:#1170b8;}.ac{fill:#09455f;}.ad{fill:#fcc20b;}.ae{fill:#e54332;}.af{fill:#78401f;}</style></defs><title>sofa</title><path class="a" d="M91,55.79c0,.81-1.09,1.64-2.52,2.46l-16,9.25V65.79a.88.88,0,0,0-.14-.45l12-6.93a.7.7,0,0,0,.4-.58c0-1.22,0-2.44,0-3.66a.69.69,0,0,0-.4-.57l-39.64-23a2.25,2.25,0,0,0-2,0l-36.38,21a.69.69,0,0,0-.41.58V54.9l-1-.57A2.79,2.79,0,0,1,3.32,52c0,1.23,0,2.45,0,3.67A2.78,2.78,0,0,0,5,58L46,81.85a8.8,8.8,0,0,0,8,0L88.54,61.91c1.42-.82,2.52-1.64,2.51-2.46C91.05,58.23,91,57,91,55.79Z" transform="translate(-3.32 -6)"/><path class="b" d="M84.35,53.6l-39.63-23a2.27,2.27,0,0,0-2,0l-36.38,21a.61.61,0,0,0,0,1.15L46,75.76a2.25,2.25,0,0,0,2,0l36.39-21A.61.61,0,0,0,84.35,53.6Z" transform="translate(-3.32 -6)"/><path class="c" d="M68.73,64.89a3.45,3.45,0,0,1,3.13,0,1,1,0,0,1,0,1.82l-3.2,1.85a3.45,3.45,0,0,1-3.13,0,1,1,0,0,1,0-1.82Z" transform="translate(-3.32 -6)"/><path class="d" d="M39.52,29.77a8.83,8.83,0,0,1,8,0L90,54.44c2.18,1.28.77,2.54-1.43,3.81L54,78.19a8.83,8.83,0,0,1-8,0L5,54.33C2.78,53.06,2.79,51,5,49.71ZM84.35,53.6l-39.63-23a2.27,2.27,0,0,0-2,0l-36.38,21a.61.61,0,0,0,0,1.15L46,75.76a2.25,2.25,0,0,0,2,0l36.39-21a.61.61,0,0,0,0-1.15ZM71.85,66.71a1,1,0,0,0,0-1.82,3.45,3.45,0,0,0-3.13,0l-3.2,1.85a1,1,0,0,0,0,1.82,3.45,3.45,0,0,0,3.13,0l3.2-1.85Z" transform="translate(-3.32 -6)"/><path class="e" d="M46.38,19.63c-3.64,2.11-3.66,5.54,0,7.65a14.43,14.43,0,0,0,13.14,0c3.64-2.11,3.66-5.54,0-7.65A14.43,14.43,0,0,0,46.38,19.63Z" transform="translate(-3.32 -6)"/><path class="e" d="M43.64,23.46a9.29,9.29,0,1,1,18.58,0Z" transform="translate(-3.32 -6)"/><path class="d" d="M55.81,21c.5,1.41,1.67,2.27,2.61,1.94s1.29-1.76.79-3.16-1.67-2.27-2.61-1.94S55.31,19.58,55.81,21Z" transform="translate(-3.32 -6)"/><g class="f"><g class="f"><g class="f"><path class="g" d="M75.55,24.88l-.64-.37a1,1,0,0,1,.63-.15l.64.37a1,1,0,0,0-.63.15Z" transform="translate(-3.32 -6)"/><path class="h" d="M76.18,24.73l-.64-.37a.48.48,0,0,1,.2.07l.64.37a.68.68,0,0,0-.2-.07Z" transform="translate(-3.32 -6)"/></g></g><g class="f"><g class="f"><path class="h" d="M74.72,27.67l-.63-.37a.85.85,0,0,1-.35-.76,2.34,2.34,0,0,1,.2-.87l.64.37a2.16,2.16,0,0,0-.2.87.82.82,0,0,0,.34.76Z" transform="translate(-3.32 -6)"/><path class="g" d="M74.58,26l-.64-.37a2.6,2.6,0,0,1,1-1.16l.64.37a2.54,2.54,0,0,0-1,1.16Z" transform="translate(-3.32 -6)"/></g></g><path class="i" d="M75.55,24.88c.65-.37,1.17-.07,1.17.68a2.62,2.62,0,0,1-1.16,2c-.65.37-1.18.07-1.18-.68A2.6,2.6,0,0,1,75.55,24.88Z" transform="translate(-3.32 -6)"/></g><g class="f"><g class="f"><path class="c" d="M57.51,48.68v1.53a3.66,3.66,0,0,0,1.92,3V51.64a3.7,3.7,0,0,1-1.92-3Z" transform="translate(-3.32 -6)"/><path class="c" d="M59.43,51.64v1.53l.32.2A10.32,10.32,0,0,0,64,54.63V53.1a10.43,10.43,0,0,1-4.2-1.26l-.33-.2Z" transform="translate(-3.32 -6)"/><path class="c" d="M64,53.1v1.53a11.61,11.61,0,0,0,6.73-1.26A3.88,3.88,0,0,0,73,50.17V48.64a3.89,3.89,0,0,1-2.28,3.2A11.64,11.64,0,0,1,64,53.1Z" transform="translate(-3.32 -6)"/></g><path class="a" d="M59.79,45.48c-3,1.75-3,4.6,0,6.36a12,12,0,0,0,10.94,0c3-1.76,3-4.61,0-6.36A12,12,0,0,0,59.79,45.48Z" transform="translate(-3.32 -6)"/></g><g class="f"><g class="f"><g class="f"><path class="i" d="M61.22,47.89V49a1.88,1.88,0,0,0,1,1.53V49.42a1.91,1.91,0,0,1-1-1.53Z" transform="translate(-3.32 -6)"/><path class="j" d="M62.22,49.42V50.5l.17.11a5.25,5.25,0,0,0,2.18.65V50.18a5.25,5.25,0,0,1-2.18-.65l-.17-.11Z" transform="translate(-3.32 -6)"/><path class="i" d="M64.57,50.18v1.08a6.11,6.11,0,0,0,3.51-.65,2,2,0,0,0,1.18-1.67V47.86a2,2,0,0,1-1.19,1.67,6.06,6.06,0,0,1-3.5.65Z" transform="translate(-3.32 -6)"/></g></g><path class="e" d="M62.41,46.22c-1.58.92-1.58,2.4,0,3.31a6.25,6.25,0,0,0,5.68,0c1.58-.91,1.59-2.39,0-3.31A6.25,6.25,0,0,0,62.41,46.22Z" transform="translate(-3.32 -6)"/></g><g class="f"><g class="f"><path class="c" d="M74.74,26.21l-11,21.16a.71.71,0,0,0,.38.58l11-21.16a.71.71,0,0,1-.38-.58Z" transform="translate(-3.32 -6)"/><path class="c" d="M75.12,26.79,64.11,48l.06,0a2,2,0,0,0,.83.25L76,27.08a2.13,2.13,0,0,1-.83-.25l-.06,0Z" transform="translate(-3.32 -6)"/><path class="c" d="M76,27.08,65,48.24A1.76,1.76,0,0,0,66.32,48a5,5,0,0,0,.55-.82l10.91-21a.75.75,0,0,1-.44.63,2.36,2.36,0,0,1-1.33.25Z" transform="translate(-3.32 -6)"/></g><path class="k" d="M75.19,25.57a.67.67,0,0,0,0,1.26,2.41,2.41,0,0,0,2.16,0,.67.67,0,0,0,0-1.26A2.39,2.39,0,0,0,75.19,25.57Z" transform="translate(-3.32 -6)"/></g><g class="f"><g class="f"><path class="c" d="M53.37,10.75,74.53,26a.8.8,0,0,0,.41.63L53.78,11.37a.79.79,0,0,1-.41-.62Z" transform="translate(-3.32 -6)"/><path class="c" d="M54.74,11.68,75.9,26.91a2.49,2.49,0,0,0,1.42-.26A.79.79,0,0,0,77.8,26L56.64,10.74a.84.84,0,0,1-.48.68,2.49,2.49,0,0,1-1.42.26Z" transform="translate(-3.32 -6)"/></g><path class="l" d="M53.86,10.07a.71.71,0,0,0,0,1.35,2.54,2.54,0,0,0,2.31,0,.71.71,0,0,0,0-1.35A2.54,2.54,0,0,0,53.86,10.07Z" transform="translate(-3.32 -6)"/></g><path class="c" d="M53.78,11.37,74.94,26.61l.07,0a2.26,2.26,0,0,0,.89.26L54.74,11.68a2.26,2.26,0,0,1-.89-.26l-.07-.05Z" transform="translate(-3.32 -6)"/><g class="f"><g class="f"><g class="f"><path class="g" d="M76.86,25.54l-.64-.37a1,1,0,0,1,.63-.15l.64.37a1,1,0,0,0-.63.15Z" transform="translate(-3.32 -6)"/><path class="h" d="M77.49,25.39,76.85,25a.68.68,0,0,1,.2.07l.64.37a.68.68,0,0,0-.2-.07Z" transform="translate(-3.32 -6)"/></g></g><g class="f"><g class="f"><path class="h" d="M76,28.33,75.4,28a.8.8,0,0,1-.35-.75,2.38,2.38,0,0,1,.2-.88l.64.37a2.2,2.2,0,0,0-.2.88.81.81,0,0,0,.34.75Z" transform="translate(-3.32 -6)"/><path class="g" d="M75.89,26.7l-.64-.37a2.6,2.6,0,0,1,1-1.16l.64.37a2.54,2.54,0,0,0-1,1.16Z" transform="translate(-3.32 -6)"/></g></g><path class="i" d="M76.86,25.54c.65-.37,1.17-.07,1.17.68a2.62,2.62,0,0,1-1.16,2c-.65.37-1.18.07-1.18-.67A2.61,2.61,0,0,1,76.86,25.54Z" transform="translate(-3.32 -6)"/></g><g class="f"><g class="f"><g class="f"><path class="i" d="M49.1,8.46l0,6.62a1.8,1.8,0,0,0,1,1.46l0-6.62a1.83,1.83,0,0,1-.95-1.46Z" transform="translate(-3.32 -6)"/><path class="i" d="M50.05,9.92l0,6.62.16.09a5,5,0,0,0,2.07.63l0-6.62A5.07,5.07,0,0,1,50.21,10l-.16-.1Z" transform="translate(-3.32 -6)"/><path class="i" d="M52.28,10.64l0,6.62a5.74,5.74,0,0,0,3.32-.63,1.9,1.9,0,0,0,1.12-1.57l0-6.62A1.92,1.92,0,0,1,55.6,10a5.74,5.74,0,0,1-3.32.62Z" transform="translate(-3.32 -6)"/></g></g><path class="e" d="M50.23,6.88c-1.5.87-1.51,2.27,0,3.14a5.89,5.89,0,0,0,5.39,0c1.49-.87,1.5-2.27,0-3.14A6,6,0,0,0,50.23,6.88Z" transform="translate(-3.32 -6)"/></g><g class="f"><g class="f"><path class="a" d="M50.77,7.26l0,1.08a1,1,0,0,0,.54.83l0-1.09a1,1,0,0,1-.53-.82Z" transform="translate(-3.32 -6)"/><path class="a" d="M51.3,8.08l0,1.09.08.05a2.76,2.76,0,0,0,1.17.35l0-1.08a2.91,2.91,0,0,1-1.17-.35l-.09-.06Z" transform="translate(-3.32 -6)"/><path class="a" d="M52.56,8.49l0,1.08a3.19,3.19,0,0,0,1.88-.35,1.06,1.06,0,0,0,.63-.89l0-1.08a1.09,1.09,0,0,1-.63.89,3.26,3.26,0,0,1-1.88.35Z" transform="translate(-3.32 -6)"/></g><path class="m" d="M51.4,6.37a.94.94,0,0,0,0,1.77,3.35,3.35,0,0,0,3,0,.94.94,0,0,0,0-1.77A3.35,3.35,0,0,0,51.4,6.37Z" transform="translate(-3.32 -6)"/></g><g class="f"><path class="n" d="M36.21,29.24l-3.33-1.93a.73.73,0,0,0-.42-.09l3.33,1.93a.73.73,0,0,1,.42.09Z" transform="translate(-3.32 -6)"/><g class="f"><g class="f"><path class="o" d="M20.27,34.11l11.6-6.7a.6.6,0,0,1,.11-.06,1.15,1.15,0,0,1,.48-.13l3.33,1.93a1.33,1.33,0,0,0-.48.13l-.11.06L23.59,36a3.18,3.18,0,0,0-1.27,1.65L19,35.76A3.15,3.15,0,0,1,20.27,34.11Z" transform="translate(-3.32 -6)"/><path class="p" d="M18.85,36.39a2.85,2.85,0,0,1,.14-.63l3.33,1.93a2.85,2.85,0,0,0-.14.63c0,.06,0,.12,0,.18l0,11.59a1,1,0,0,0,.42.91l-3.33-1.93a1,1,0,0,1-.42-.91l0-11.59C18.84,36.51,18.85,36.45,18.85,36.39Z" transform="translate(-3.32 -6)"/></g></g><path class="q" d="M23.59,36a3.16,3.16,0,0,0-1.42,2.46l0,11.59c0,.9.65,1.27,1.43.81l11.6-6.7a3.07,3.07,0,0,0,1.42-2.45l0-11.6c0-.9-.65-1.26-1.43-.81Z" transform="translate(-3.32 -6)"/></g><g class="f"><g class="f"><path class="r" d="M34.24,24.22l2-1.18a1.11,1.11,0,0,0-1.15-.1l-2,1.16a1.14,1.14,0,0,1,1.15.12Z" transform="translate(-3.32 -6)"/></g><g class="f"><g class="f"><path class="s" d="M63.94,54.45l2-1.17a1.14,1.14,0,0,0,.48-1l-2,1.17a1.14,1.14,0,0,1-.47,1Z" transform="translate(-3.32 -6)"/></g></g><polygon class="t" points="61.09 47.41 63.1 46.24 63.13 36.27 61.12 37.44 61.09 47.41"/><polygon class="o" points="59.5 34.64 61.52 33.48 32.93 17.04 30.92 18.22 59.5 34.64"/><g class="f"><path class="o" d="M64.44,43.44l2-1.17a3.57,3.57,0,0,0-1.62-2.79l-2,1.16a3.57,3.57,0,0,1,1.61,2.8Z" transform="translate(-3.32 -6)"/></g><path class="p" d="M34.24,24.22c-.89-.52-1.62-.1-1.62.92l0,11.87c0,1,.72.38,1.62.9L62.79,54.34c.89.51,1.62.1,1.62-.93l0-10a3.57,3.57,0,0,0-1.61-2.8Z" transform="translate(-3.32 -6)"/></g><g class="f"><g class="f"><path class="n" d="M60.92,57.38l0,3.4a1,1,0,0,0,.59-.82V56.55a1,1,0,0,1-.6.83Z" transform="translate(-3.32 -6)"/></g><polygon class="n" points="48.25 56.77 48.26 60.19 57.61 54.78 57.6 51.38 48.25 56.77"/><path class="t" d="M22.45,47.49,48.74,62.77a3.16,3.16,0,0,0,2.84,0v3.42a2.86,2.86,0,0,1-1.12.31l.44,1L22.46,50.9a1,1,0,0,1-.58-.81V46.68A1,1,0,0,0,22.45,47.49Z" transform="translate(-3.32 -6)"/></g><g class="f"><path class="p" d="M21.89,46.54s0-.06,0-.08V43.05a1,1,0,0,0,.58.81l1.72,1,7.64-4.41a3.16,3.16,0,0,1,2.84,0L59.22,54.73l1.7-1a1,1,0,0,0,.6-.83v3.41a.7.7,0,0,1,0,.14,1,1,0,0,1-.58.91l-9.34,5.39a3.16,3.16,0,0,1-2.84,0L22.45,47.49A.91.91,0,0,1,21.89,46.54Z" transform="translate(-3.32 -6)"/><path class="t" d="M22.46,42.22a.87.87,0,0,0,0,1.64L48.74,59.14a3.16,3.16,0,0,0,2.84,0l9.34-5.39a.87.87,0,0,0,0-1.65L34.65,36.82a3.16,3.16,0,0,0-2.84,0Z" transform="translate(-3.32 -6)"/></g><g class="f"><g class="f"><g class="f"><path class="o" d="M51.16,52.06l11.6-6.7.11-.06a1.15,1.15,0,0,1,.48-.13.73.73,0,0,1,.42.09L67.1,47.2a.66.66,0,0,0-.42-.1,1.33,1.33,0,0,0-.48.13l-.11.06L54.49,54a3.13,3.13,0,0,0-1.28,1.66l-3.33-1.94A3.15,3.15,0,0,1,51.16,52.06Z" transform="translate(-3.32 -6)"/><path class="p" d="M49.74,54.34a2.85,2.85,0,0,1,.14-.63l3.33,1.94a2.77,2.77,0,0,0-.14.62v.18l0,11.59a1,1,0,0,0,.42.91L50.18,67a1,1,0,0,1-.42-.91l0-11.59Z" transform="translate(-3.32 -6)"/></g></g><path class="q" d="M54.49,54a3.1,3.1,0,0,0-1.42,2.46l0,11.59c0,.9.65,1.27,1.43.82l11.6-6.7a3.1,3.1,0,0,0,1.42-2.46l0-11.59c0-.9-.65-1.27-1.43-.82Z" transform="translate(-3.32 -6)"/></g><path class="u" d="M32.11,23.63c.13-.29.58-.83,1-.78.12,0,.24.1.2.21s-.23.47-.17.67.3.5.33.78c0,.57-1,.82-1.24.33A1.43,1.43,0,0,1,32.11,23.63Z" transform="translate(-3.32 -6)"/><path class="v" d="M25.84,54s2-.48,1.45,1.75c0,.08-.22.58-1,.46a1.68,1.68,0,0,0-1.16.49,3.5,3.5,0,0,1-2.68.54c-.38-.05-.57-.18-.63-.35a1.29,1.29,0,0,1,0-.44c.17-.55,1.23-1.12,2-1.46Z" transform="translate(-3.32 -6)"/><path class="m" d="M25.84,53.63s2.05-.44,1.51,1.78c0,.09-.28.55-1.05.42a1.72,1.72,0,0,0-1.16.5,3.5,3.5,0,0,1-2.68.54c-1.61-.23.2-1.73,1.32-2.26Z" transform="translate(-3.32 -6)"/><path class="v" d="M27.59,55.71s2-.48,1.44,1.75c0,.08-.21.58-1,.46a1.65,1.65,0,0,0-1.15.49A3.49,3.49,0,0,1,24.2,59c-.38-.06-.57-.18-.62-.35a1.68,1.68,0,0,1,0-.45c.17-.55,1.23-1.11,2-1.46Z" transform="translate(-3.32 -6)"/><path class="m" d="M27.59,55.37s2-.44,1.5,1.79c0,.08-.27.54-1.05.42a1.65,1.65,0,0,0-1.15.49,3.52,3.52,0,0,1-2.69.54c-1.61-.23.21-1.72,1.32-2.25Z" transform="translate(-3.32 -6)"/><path class="w" d="M24.71,43s3-.09,3.9,1.27c0,.34-1.24,1.31-1.25,1.88a60.41,60.41,0,0,0,0,8.56c-.68,1.08-3.21-.12-3.21-.52C24.14,53.29,24.1,44.19,24.71,43Z" transform="translate(-3.32 -6)"/><path class="w" d="M28.06,46.35s1.12-1.41.93-1.63c-.61-.73-3.27-1-4.28-1.68,1-1.38,4.9-3.09,6.42-3.42.13-.16.12-.28.19-.24,2,1.43,6.86.57,6.88.74.19,1.49.59,3.16-.67,4.64-.56.65-4.86,2.09-5.86,2.56-.07,0-2.59,9.12-2.6,9.32,0,.8-3.42,1-3.42-.73C25.65,55.83,28,46.77,28.06,46.35Z" transform="translate(-3.32 -6)"/><g class="f"><polygon class="x" points="20.2 37.53 20.2 37.65 26.64 41.41 26.64 41.29 20.2 37.53"/><polygon class="y" points="26.64 41.29 26.64 41.41 31.52 38.57 31.52 38.45 26.64 41.29"/><polygon class="z" points="20.2 37.53 26.64 41.29 31.52 38.45 25.08 34.69 20.2 37.53"/><polygon class="w" points="21.57 37.64 26.45 40.49 27.35 39.88 22.47 37.03 21.57 37.64"/></g><path class="aa" d="M30.33,36a1.13,1.13,0,0,1-1.56.37h0a1.14,1.14,0,0,1-.37-1.56L32,28.87a1.13,1.13,0,0,1,1.56-.37h0A1.12,1.12,0,0,1,34,30.05Z" transform="translate(-3.32 -6)"/><path class="aa" d="M39.24,30.91c0-1-3.09-2.67-4.12-2.67a11.41,11.41,0,0,0-2.63.2c-.49.27.51.37.51.95,0,1,.15,5.77,1.19,5.77S39.24,32,39.24,30.91Z" transform="translate(-3.32 -6)"/><path class="ab" d="M33.26,28.83a1.81,1.81,0,0,1,.23-.41,1.32,1.32,0,0,0-1.58.52L30,32.12l.36.27c.44.34.85.7,1.26,1.08l.37.36,1-1.6A8.77,8.77,0,0,1,33.26,28.83Z" transform="translate(-3.32 -6)"/><path class="m" d="M38.44,42.46c.29-.35,1-8.82,1-8.82-.07-.54,0-2.87-.34-3.43a5.52,5.52,0,0,0-2.21-1.38s-1.69,1.16-2.3.94-.85-1.5-.85-1.5c-.58,0-.81,0-.94.12-.84.67-.94,2.65-1,3.35a57.86,57.86,0,0,1-1.27,7.63C30.05,42,37.11,44.06,38.44,42.46Z" transform="translate(-3.32 -6)"/><path class="a" d="M33.46,32.22a1,1,0,0,1-.12-.19l-.47.13s0,0,0,0a1,1,0,0,1,.12.17Z" transform="translate(-3.32 -6)"/><path class="ac" d="M32.56,31.93a.27.27,0,0,0-.28,0,.1.1,0,0,0,0,0,.37.37,0,0,0,0,.15.76.76,0,0,0,.19.45,1.18,1.18,0,0,0,.21.18l.12.06h.06a.24.24,0,0,0,.22,0c.1-.09.09-.28,0-.47a1,1,0,0,0-.12-.17s0,0,0,0A.74.74,0,0,0,32.56,31.93Z" transform="translate(-3.32 -6)"/><path class="a" d="M32.73,32.85l-.12-.06.12.65.11,0,.06,0-.11-.63Z" transform="translate(-3.32 -6)"/><path class="ad" d="M32.84,33.46l-.11,0a.26.26,0,0,0-.17.05.29.29,0,0,0-.05.31.8.8,0,0,0,.07.2.64.64,0,0,0,.1.13.74.74,0,0,0,.33.25.3.3,0,0,0,.28,0l0,0a.23.23,0,0,0,0-.14.72.72,0,0,0-.19-.47.76.76,0,0,0-.27-.21Z" transform="translate(-3.32 -6)"/><path class="ae" d="M36.11,32.21a.3.3,0,0,0-.28,0c-.11.1-.09.33,0,.54a1,1,0,0,1,.08.11L36,33a.83.83,0,0,0,.26.17.3.3,0,0,0,.28,0c.13-.12.08-.41-.12-.65A.8.8,0,0,0,36.11,32.21Z" transform="translate(-3.32 -6)"/><path class="a" d="M35.87,32.78l-.42.17h0a.94.94,0,0,1,.12.18L36,33,36,32.89A1,1,0,0,0,35.87,32.78Z" transform="translate(-3.32 -6)"/><path class="a" d="M34.64,35.51a.3.3,0,0,1-.16,0l.25.56a.24.24,0,0,1,.15,0Z" transform="translate(-3.32 -6)"/><path class="ad" d="M35.35,34.31a.53.53,0,0,0-.12,0,.2.2,0,0,0-.15.06.33.33,0,0,0,0,.38.62.62,0,0,0,.1.2l0,.06a.72.72,0,0,0,.33.24.27.27,0,0,0,.28,0c.13-.12.08-.41-.12-.65a.9.9,0,0,0-.27-.22Z" transform="translate(-3.32 -6)"/><path class="a" d="M35.14,34.92a.62.62,0,0,1-.1-.2l-.42.12a.76.76,0,0,1,.12.19Z" transform="translate(-3.32 -6)"/><path class="ae" d="M34.28,34.58a.27.27,0,0,0-.28,0,.21.21,0,0,0,0,.06.29.29,0,0,0,0,.16.78.78,0,0,0,.19.43.8.8,0,0,0,.33.24h0a.3.3,0,0,0,.16,0l.09,0c.1-.09.09-.26,0-.44a.76.76,0,0,0-.12-.19v0A.9.9,0,0,0,34.28,34.58Z" transform="translate(-3.32 -6)"/><path class="a" d="M34,34.67l-.6-.5a.23.23,0,0,1,0,.14l.61.52A.29.29,0,0,1,34,34.67Z" transform="translate(-3.32 -6)"/><path class="ac" d="M35.12,32.72a.3.3,0,0,0-.28,0,.24.24,0,0,0-.06.11.54.54,0,0,0,0,.18.81.81,0,0,0,.18.36.71.71,0,0,0,.13.12.41.41,0,0,0,.19.11,0,0,0,0,0,0,0,.27.27,0,0,0,.28,0c.1-.09.1-.27,0-.46a.94.94,0,0,0-.12-.18h0A.83.83,0,0,0,35.12,32.72Z" transform="translate(-3.32 -6)"/><path class="a" d="M34.78,32.85l-.62-.53a.19.19,0,0,1,0,.13l.67.58A.54.54,0,0,1,34.78,32.85Z" transform="translate(-3.32 -6)"/><path class="a" d="M35.41,34.33l-.13-.71a.41.41,0,0,1-.19-.11l.14.77a.53.53,0,0,1,.12,0Z" transform="translate(-3.32 -6)"/><path class="ae" d="M33.64,31.58a.26.26,0,0,0-.27,0c-.1.08-.1.24,0,.42a1,1,0,0,0,.12.19l0,0a.72.72,0,0,0,.33.24.27.27,0,0,0,.28,0l0,0a.19.19,0,0,0,0-.13.7.7,0,0,0-.19-.5A.8.8,0,0,0,33.64,31.58Z" transform="translate(-3.32 -6)"/><path class="ae" d="M35,36.07l-.08,0a.24.24,0,0,0-.15,0,.1.1,0,0,0,0,0c-.14.12-.08.41.12.64a.77.77,0,0,0,.32.24.27.27,0,0,0,.28,0c.14-.12.08-.41-.12-.65A.77.77,0,0,0,35,36.07Z" transform="translate(-3.32 -6)"/><path class="aa" d="M34.8,29.5a1.44,1.44,0,0,0,1.61-.73l0-1.36-2-.2-.07,1.67A.74.74,0,0,0,34.8,29.5Z" transform="translate(-3.32 -6)"/><path class="aa" d="M39.68,38.8A1.19,1.19,0,0,1,38.52,40h0a1.18,1.18,0,0,1-1.22-1.16l-.19-7.32a1.18,1.18,0,0,1,1.16-1.22h0a1.19,1.19,0,0,1,1.22,1.16Z" transform="translate(-3.32 -6)"/><path class="aa" d="M39.68,38.8A1.19,1.19,0,0,1,38.52,40h0a1.18,1.18,0,0,1-1.22-1.16l-.19-7.32a1.18,1.18,0,0,1,1.16-1.22h0a1.19,1.19,0,0,1,1.22,1.16Z" transform="translate(-3.32 -6)"/><path class="aa" d="M39.43,38.12a1.17,1.17,0,0,0-1.64-.21L33,42.24h0a6.54,6.54,0,0,0-.83.35c-.58.34-1.1.7-1.22,1.18-.26,1,.18,1.31.63,1.36.69.06,2.27-1.69,2.27-1.69l5.43-3.67A1.17,1.17,0,0,0,39.43,38.12Z" transform="translate(-3.32 -6)"/><path class="aa" d="M29.59,34.36a1.16,1.16,0,0,0-1.41.86L27.46,41a2.6,2.6,0,0,0,.07,1.68c.55.86.93.68,1.26.39s.29-2,.46-2.8l1.21-4.5A1.18,1.18,0,0,0,29.59,34.36Z" transform="translate(-3.32 -6)"/><path class="aa" d="M37.2,35.18v.37l.09,3.31A1.18,1.18,0,0,0,38.49,40h0a1.2,1.2,0,0,0,1.16-1.23l-.09-3.29v-.39A3.92,3.92,0,0,0,38.41,35,3.82,3.82,0,0,0,37.2,35.18Z" transform="translate(-3.32 -6)"/><path class="aa" d="M37.42,25.85a6.53,6.53,0,0,1-1.17,2.29,2.53,2.53,0,0,1-2.83.38c-1-.73-1-2.51-.89-4.33s1.49-2.08,2.63-1.25S37.79,24.08,37.42,25.85Z" transform="translate(-3.32 -6)"/><path class="af" d="M32.1,23.56c.08.66.86.68,1.35.55a4.27,4.27,0,0,1,1-.23,1,1,0,0,1,.65.34c.66.58.21,2.09.6,2s.81-1.25,1.22-.62c.17.26.22,1.09-.75,1.61a1.78,1.78,0,0,0-.49.4,3.67,3.67,0,0,1-1.19.47,1,1,0,0,0-.35-.61c-.16-.16-.46-.47-.71-.38l-.13,0a.73.73,0,0,0-.53.16s-.1,0-.12,0a7.62,7.62,0,0,0,.16,1c-.06.64.46,1.07,1.2,1.06a3.92,3.92,0,0,0,2.19-1.07,3.28,3.28,0,0,0,1-1.05l.1-.17a3,3,0,0,0,.4-.56,4.33,4.33,0,0,0,.52-2.61,3,3,0,0,0-1.23-2,3,3,0,0,0-.69-.37,3.6,3.6,0,0,0-2.69,0A2.12,2.12,0,0,0,32.1,23.56ZM34,28.12a2.42,2.42,0,0,1-.47,0,1.38,1.38,0,0,1-.59-.52,3,3,0,0,0,.45-.2,2.2,2.2,0,0,0,.33.35l.22.27a.47.47,0,0,1,0,.1S34,28.11,34,28.12Z" transform="translate(-3.32 -6)"/><path class="ab" d="M39.84,35.27l-.28-4.42a1.33,1.33,0,1,0-2.66.06L37,35.33Z" transform="translate(-3.32 -6)"/></svg>