<svg xmlns="http://www.w3.org/2000/svg" viewBox="0 0 185.02 115.3"><defs><style>.a{fill:#bcbcbe;}.b{fill:#83cff2;}.c{fill:#9cb5cc;}.d{fill:#f8f9fc;}.e{isolation:isolate;}.f{fill:#d62222;}.g{fill:#6c1a0f;}.h{fill:#ebebeb;}.i{fill:#dcdcdc;}.j{fill:#ff5542;}.k{fill:#e68027;}.l{fill:#8a4c01;}.m{fill:#ffb923;}</style></defs><title>tablet</title><path class="a" d="M8.38,63.7c0,1.75,2.26,3.53,5.24,5.32L47.1,89.12l.06-3.62a1.86,1.86,0,0,1,.32-1L22.4,69.47a1.44,1.44,0,0,1-.83-1.23q0-3.9.12-7.79a1.49,1.49,0,0,1,.86-1.21L106.7,11.38a4.7,4.7,0,0,1,4.2,0l76,45.68a1.51,1.51,0,0,1,.85,1.25l-.1,5.84L189.78,63c2.3-1.32,3.48-3.08,3.5-4.84L193.16,66c0,1.77-1.2,3.53-3.51,4.84l-87.16,49.57c-4.65,2.65-12.21,2.54-16.8-.22L13.49,76.8c-3-1.79-5.26-3.56-5.23-5.31C8.29,68.9,8.35,66.3,8.38,63.7Z" transform="translate(-8.26 -7)"/><path class="b" d="M22.55,59.24,106.7,11.38a4.7,4.7,0,0,1,4.2,0l76,45.68a1.31,1.31,0,0,1,0,2.46l-84.15,47.85a4.65,4.65,0,0,1-4.19-.06L22.52,61.69A1.31,1.31,0,0,1,22.55,59.24Z" transform="translate(-8.26 -7)"/><path class="c" d="M55.14,83.7a7.16,7.16,0,0,0-6.6-.09c-1.84,1-1.84,2.77,0,3.86l6.7,4a7.18,7.18,0,0,0,6.58.09c1.83-1,1.85-2.77,0-3.86Z" transform="translate(-8.26 -7)"/><path class="d" d="M189.86,53.19c4.6,2.76,4.56,7.19-.08,9.84L102.62,112.6c-4.66,2.64-12.21,2.53-16.8-.23L13.62,69c-4.61-2.77-7.54-5.49-2.9-8.13L100.86,9.63c4.64-2.65,12.21-2.55,16.81.21ZM22.55,59.24a1.31,1.31,0,0,0,0,2.45l76.07,45.67a4.65,4.65,0,0,0,4.19.06l84.15-47.85a1.31,1.31,0,0,0,0-2.46l-76-45.68a4.7,4.7,0,0,0-4.2,0L22.55,59.24Zm26,28.23,6.7,4a7.18,7.18,0,0,0,6.58.09c1.83-1,1.85-2.77,0-3.86l-6.69-4a7.16,7.16,0,0,0-6.6-.09c-1.84,1-1.84,2.77,0,3.86Z" transform="translate(-8.26 -7)"/><g class="e"><polygon class="f" points="159.46 51.73 159.41 53.79 89.67 93.32 89.71 91.25 159.46 51.73"/><polygon class="f" points="89.71 91.25 89.67 93.32 42.92 65.25 42.96 63.18 89.71 91.25"/><polygon class="g" points="159.46 51.73 89.71 91.25 42.96 63.18 112.71 23.65 159.46 51.73"/></g><polygon class="g" points="48.39 55.12 43.72 52.79 43.59 62.59 48.24 66.07 48.39 55.12"/><g class="e"><polygon class="h" points="155.35 44.23 155.23 52.38 89.71 89.51 89.83 81.36 155.35 44.23"/><polygon class="c" points="46.77 55.53 46.67 63.7 89.71 89.51 89.83 81.36 46.77 55.53"/><polygon class="i" points="111.97 18.18 49.16 53.76 49.12 56.91 89.83 81.36 155.35 44.23 111.97 18.18"/></g><g class="e"><polygon class="f" points="159.61 39.78 159.57 41.85 89.83 81.38 89.86 79.3 159.61 39.78"/><polygon class="f" points="89.86 79.3 89.83 81.38 43.08 53.3 43.12 51.23 89.86 79.3"/><polygon class="j" points="159.61 39.78 89.86 79.3 43.12 51.23 112.87 11.71 159.61 39.78"/></g><polygon class="f" points="45.09 65.59 42.94 64.44 43.1 52.07 45.26 53.44 45.09 65.59"/><g class="e"><polygon class="k" points="146.83 34.85 146.8 36.66 86.05 71.09 86.09 69.28 146.83 34.85"/><polygon class="k" points="86.09 69.28 86.05 71.09 45.34 46.64 45.38 44.83 86.09 69.28"/><polygon class="l" points="146.83 34.85 86.09 69.28 45.38 44.83 106.12 10.41 146.83 34.85"/></g><polygon class="l" points="50.1 37.81 46.04 35.78 45.92 44.32 49.97 47.35 50.1 37.81"/><g class="e"><polygon class="h" points="143.27 28.33 143.15 35.43 86.09 67.77 86.2 60.67 143.27 28.33"/><polygon class="c" points="48.7 38.17 48.6 45.28 86.09 67.77 86.2 60.67 48.7 38.17"/><polygon class="i" points="105.48 5.64 50.78 36.63 50.74 39.37 86.2 60.67 143.27 28.33 105.48 5.64"/></g><g class="e"><polygon class="k" points="146.97 24.45 146.94 26.25 86.19 60.68 86.22 58.88 146.97 24.45"/><polygon class="k" points="86.22 58.88 86.19 60.68 45.48 36.23 45.52 34.43 86.22 58.88"/><polygon class="m" points="146.97 24.45 86.22 58.88 45.52 34.43 106.26 0 146.97 24.45"/></g><polygon class="k" points="47.23 46.94 45.35 45.92 45.5 35.16 47.37 36.35 47.23 46.94"/></svg>